<?xml version="1.0" standalone="no"?>
<!DOCTYPE svg PUBLIC "-//W3C//DTD SVG 20010904//EN"
 "http://www.w3.org/TR/2001/REC-SVG-20010904/DTD/svg10.dtd">
<svg version="1.0" xmlns="http://www.w3.org/2000/svg"
 width="1024.000000pt" height="1024.000000pt" viewBox="0 0 1024.000000 1024.000000"
 preserveAspectRatio="xMidYMid meet">

<g transform="translate(0.000000,1024.000000) scale(0.100000,-0.100000)"
fill="#000000" stroke="none">
<path d="M5003 9135 c-155 -34 -282 -153 -347 -326 -18 -46 -19 -47 -73 -54
-125 -15 -256 -80 -341 -169 -69 -72 -105 -130 -140 -229 -23 -65 -26 -86 -26
-219 l-1 -147 -38 -17 c-21 -10 -70 -51 -108 -92 l-70 -75 -22 20 c-12 11 -73
63 -136 117 l-114 96 -81 0 c-158 0 -286 -50 -386 -150 -104 -105 -154 -239
-167 -450 l-8 -125 -35 2 c-19 1 -107 6 -195 12 -88 6 -230 14 -316 17 l-157
7 -15 -24 c-12 -20 -16 -77 -19 -321 -1 -164 -5 -298 -8 -298 -2 0 -69 18
-148 41 -163 47 -200 47 -274 0 -207 -131 -222 -642 -30 -1016 78 -152 188
-282 295 -349 l28 -17 -47 -31 c-59 -40 -146 -145 -184 -223 -46 -93 -70 -203
-70 -320 0 -95 4 -116 45 -270 4 -16 -5 -25 -48 -45 -105 -50 -143 -154 -134
-365 11 -273 129 -652 311 -1000 309 -593 760 -1010 1399 -1294 178 -80 378
-156 512 -196 91 -28 126 -45 90 -45 -29 -1 -117 -49 -168 -92 -54 -45 -113
-131 -136 -201 l-18 -52 -757 -5 c-735 -5 -758 -6 -772 -24 -22 -31 -18 -92 8
-110 20 -14 323 -16 3014 -16 l2993 0 20 26 c28 35 27 75 -2 102 l-23 22 -741
0 c-581 0 -743 3 -750 13 -6 6 -13 26 -17 42 -11 45 -69 135 -118 182 -49 48
-153 113 -180 113 -40 0 -14 19 55 40 305 91 664 244 897 383 438 261 826 680
1060 1146 111 223 200 468 256 707 25 105 28 139 28 294 l1 175 -30 54 c-30
55 -89 106 -132 117 -13 4 -23 8 -23 10 0 2 9 37 21 77 30 104 37 281 15 381
-33 146 -141 314 -242 376 -19 12 -34 25 -34 29 0 5 18 20 40 35 100 66 223
218 289 357 165 347 159 791 -12 963 -80 79 -147 83 -345 17 -62 -20 -115 -35
-117 -32 -3 2 -5 136 -5 297 0 201 -4 301 -12 319 -11 24 -15 25 -87 25 -42 0
-143 -5 -226 -10 -82 -5 -211 -12 -286 -16 l-135 -7 -1 109 c-2 212 -51 344
-172 465 -96 96 -165 126 -323 142 l-106 11 -39 -27 c-21 -14 -87 -72 -146
-127 -60 -55 -112 -100 -116 -100 -4 0 -14 12 -23 28 -25 40 -105 118 -155
150 -34 21 -43 32 -39 47 15 57 16 176 3 252 -35 191 -145 339 -317 427 -81
41 -120 54 -194 64 l-58 7 -23 64 c-45 124 -132 220 -247 274 -101 47 -199 57
-315 32z m145 -415 l2 -266 -35 -34 -35 -34 0 -140 c-1 -150 -1 -151 -57 -199
-22 -19 -22 -18 -94 52 -112 111 -234 161 -393 161 -76 0 -202 -27 -257 -55
l-32 -17 5 58 c15 160 159 314 329 353 24 6 81 11 126 11 l82 0 5 33 c3 17 7
49 10 71 10 79 80 182 156 229 42 26 115 47 155 44 l30 -2 3 -265z m287 -395
c33 -32 34 -89 3 -122 -23 -25 -74 -31 -108 -13 -19 10 -40 59 -40 92 0 32 45
68 85 68 25 0 44 -8 60 -25z m-799 -239 c68 -18 144 -60 185 -102 18 -19 31
-35 28 -36 -2 -2 -21 -18 -41 -37 l-37 -34 -42 37 c-108 92 -274 87 -375 -10
-113 -110 -128 -282 -33 -380 l30 -31 -48 -46 -48 -46 -26 25 c-35 34 -73 106
-94 178 -48 164 45 369 204 451 88 45 201 57 297 31z m802 -99 c33 -31 31 -98
-4 -126 -38 -30 -80 -27 -115 8 -83 84 31 198 119 118z m477 -25 c-6 -5 -49
-38 -96 -75 -47 -36 -109 -93 -138 -126 -29 -34 -58 -61 -64 -61 -5 0 -3 8 5
18 8 9 34 53 58 97 46 85 83 132 115 145 26 11 132 12 120 2z m-2246 -229
c148 -149 340 -353 403 -428 18 -23 43 -51 56 -65 13 -15 22 -36 22 -57 0 -27
-7 -37 -40 -59 -22 -15 -40 -31 -40 -35 0 -5 -7 -9 -15 -9 -12 0 -15 17 -15
94 0 90 -1 96 -26 115 -32 25 -67 27 -88 5 -21 -20 -25 -43 -28 -133 l-3 -74
-55 58 c-30 32 -65 69 -78 82 -22 24 -24 24 -207 21 -205 -3 -215 -7 -217 -68
-1 -23 6 -39 22 -52 19 -16 42 -18 170 -18 l148 0 58 -62 58 -63 -30 -6 c-61
-13 -275 -9 -344 7 -76 17 -168 70 -212 123 -65 76 -105 306 -79 442 39 197
175 324 350 328 43 1 45 0 190 -146z m1439 122 c-3 -3 -9 2 -12 12 -6 14 -5
15 5 6 7 -7 10 -15 7 -18z m1777 -119 c28 -56 34 -158 13 -227 -15 -52 -70
-115 -111 -127 -43 -14 -177 -22 -177 -11 0 5 29 40 65 78 71 75 79 100 43
138 -38 41 -64 31 -156 -61 -87 -87 -90 -94 -67 -148 4 -12 2 -19 -6 -22 -111
-31 -140 -41 -176 -59 -23 -12 -45 -18 -49 -14 -10 10 82 122 331 401 50 56
108 123 129 149 l39 48 49 -48 c27 -26 60 -70 73 -97z m-2274 79 c42 -22 69
-71 69 -125 0 -63 -27 -104 -84 -125 -60 -23 -111 -10 -155 40 -54 62 -39 159
31 204 39 25 97 27 139 6z m506 -17 c-3 -7 -5 -2 -5 12 0 14 2 19 5 13 2 -7 2
-19 0 -25z m10 -75 c-3 -10 -5 -4 -5 12 0 17 2 24 5 18 2 -7 2 -21 0 -30z
m292 -58 c63 -32 57 -130 -8 -153 -91 -32 -156 74 -89 146 25 26 57 28 97 7z
m451 -54 c0 -5 -12 -12 -27 -16 -43 -10 -183 -98 -183 -115 0 -6 -5 -10 -10
-10 -15 0 23 71 53 98 42 39 167 71 167 43z m-181 -345 l44 -45 -20 -31 c-18
-29 -147 -130 -166 -130 -5 0 -33 -22 -63 -49 -30 -27 -88 -68 -129 -91 -41
-23 -73 -46 -70 -51 4 -5 0 -6 -7 -4 -8 3 -27 -9 -43 -26 -17 -18 -25 -30 -20
-27 6 3 15 0 22 -7 9 -10 6 -15 -13 -24 -46 -21 -50 -80 -8 -126 17 -18 19
-25 8 -25 -16 0 -64 -28 -77 -45 -10 -14 -42 29 -56 76 -17 57 -13 109 13 164
42 90 112 135 209 135 l54 0 -5 53 c-10 126 62 237 182 279 79 27 96 24 145
-26z m-3085 -104 c39 -23 73 -83 86 -152 12 -65 8 -70 -75 -70 -71 0 -117 20
-156 70 -28 35 -65 150 -56 174 7 18 161 1 201 -22z m4216 -149 c0 -104 -5
-219 -10 -258 -35 -238 -239 -415 -479 -415 -78 0 -181 23 -181 40 0 9 272
294 456 479 46 46 84 92 84 103 0 25 -44 68 -68 68 -12 0 -122 -104 -290 -275
-149 -151 -275 -275 -281 -275 -5 0 -19 26 -31 58 -19 48 -21 73 -18 162 3 94
7 112 36 172 58 119 157 209 291 263 86 35 254 63 384 64 l107 1 0 -187z
m1006 135 c-4 -29 -18 -76 -32 -105 -39 -81 -103 -111 -209 -98 -48 6 -55 10
-55 29 0 41 30 125 56 156 37 44 58 52 149 60 44 4 84 8 89 9 5 0 6 -23 2 -51z
m-3445 32 c22 -12 26 -59 7 -78 -7 -7 -21 -12 -33 -12 -43 0 -61 53 -29 84 18
19 28 20 55 6z m512 -2 c16 -12 17 -48 15 -453 l-3 -440 -40 0 -40 0 -3 440
c-2 405 -1 441 15 453 9 6 22 12 28 12 6 0 19 -6 28 -12z m2463 -90 c75 -110
65 -265 -22 -319 -57 -35 -59 -30 -56 85 3 93 1 110 -22 165 -24 57 -35 139
-19 154 12 13 88 -41 119 -85z m-4352 66 c11 -30 6 -91 -9 -104 -30 -25 -48
-118 -41 -213 l6 -89 -28 7 c-75 18 -107 69 -106 170 1 104 40 184 109 226 37
23 61 24 69 3z m1668 -1 c26 -23 23 -59 -6 -78 -43 -28 -85 10 -66 59 14 37
43 45 72 19z m-160 -233 c26 -27 30 -36 25 -67 -20 -119 -187 -112 -187 7 0
87 98 123 162 60z m1174 -73 c20 7 18 -1 -6 -22 -20 -18 -20 -17 -19 21 1 22
4 29 6 17 3 -14 9 -20 19 -16z m1403 -11 c22 -26 9 -69 -22 -80 -36 -13 -61 2
-65 38 -4 35 14 56 48 56 15 0 33 -6 39 -14z m-3859 -11 c16 -20 5 -62 -20
-75 -45 -24 -85 23 -60 69 13 25 61 29 80 6z m-599 -26 c33 -16 127 -115 118
-123 -2 -2 -30 -13 -62 -25 -75 -27 -160 -28 -205 -1 -34 21 -115 136 -109
154 10 29 198 26 258 -5z m5188 15 c17 -4 31 -11 31 -15 0 -5 -18 -38 -40 -73
-62 -98 -135 -120 -266 -80 -33 10 -61 19 -63 20 -7 5 38 70 71 101 18 18 44
36 58 42 28 11 162 14 209 5z m-2374 -102 c-3 -3 -11 0 -18 7 -9 10 -8 11 6 5
10 -3 15 -9 12 -12z m35 -43 c0 -6 -4 -7 -10 -4 -5 3 -10 11 -10 16 0 6 5 7
10 4 6 -3 10 -11 10 -16z m-799 -27 c7 -18 3 -28 -17 -48 -23 -24 -27 -25 -47
-11 -26 17 -34 52 -16 73 19 23 70 14 80 -14z m-1231 -147 c0 -124 -4 -176
-16 -211 -35 -103 -95 -159 -195 -184 -65 -16 -146 1 -202 44 -75 57 -137 213
-91 230 44 17 64 7 85 -41 38 -90 112 -143 180 -128 37 8 94 56 117 99 14 25
17 61 18 181 1 83 2 156 3 163 1 8 18 12 51 12 l50 0 0 -165z m-406 135 c91
-31 122 -68 127 -151 4 -63 -4 -73 -60 -66 -103 12 -141 58 -141 172 0 36 3
65 8 65 4 0 34 -9 66 -20z m-829 -97 c381 -129 507 -214 601 -409 30 -64 36
-104 15 -104 -4 0 -5 -40 -3 -88 5 -94 -5 -129 -52 -181 -11 -13 -15 -21 -8
-17 6 4 12 2 12 -3 0 -6 -5 -11 -12 -11 -6 0 -20 -8 -30 -17 -18 -16 -23 -12
-113 83 l-94 99 -1 141 c0 162 -10 187 -69 187 -49 0 -64 -22 -70 -104 l-6
-71 -117 121 c-106 109 -121 121 -152 121 -41 0 -66 -28 -66 -74 0 -24 21 -51
120 -151 66 -66 120 -124 120 -128 0 -4 -48 -7 -107 -7 -124 0 -143 -9 -143
-71 0 -64 17 -69 220 -69 l176 0 49 -50 49 -50 -86 0 c-48 0 -98 -4 -112 -10
-50 -19 -58 -78 -16 -120 18 -18 34 -20 190 -20 94 0 170 -4 170 -9 0 -5 -75
-11 -167 -13 -135 -4 -179 -9 -224 -25 l-56 -21 -80 54 c-194 129 -313 322
-358 578 -20 116 -20 300 1 380 18 73 57 143 81 148 31 7 141 -22 338 -89z
m2148 55 c51 -32 117 -106 117 -129 0 -8 -22 -36 -49 -63 l-48 -48 -12 45
c-17 71 -80 115 -145 103 -57 -11 -96 -68 -96 -141 0 -40 5 -52 34 -81 19 -19
41 -34 50 -34 32 0 15 -18 -41 -43 -68 -29 -80 -25 -128 42 -25 36 -30 54 -33
115 -7 137 63 235 193 267 48 12 106 -1 158 -33z m940 29 c-5 -11 -7 -11 -28
1 -19 11 -18 12 5 8 14 -1 24 -6 23 -9z m1982 -11 c33 -33 40 -67 20 -105 -29
-58 -100 -68 -147 -21 -26 27 -30 36 -25 67 13 79 99 112 152 59z m1061 -22
c13 -73 -21 -303 -68 -454 -32 -102 -79 -210 -91 -211 -52 -2 -252 3 -256 7
-3 3 52 60 122 128 109 106 127 128 127 155 0 39 -31 71 -67 71 -22 0 -53 -26
-150 -122 l-123 -123 0 72 c0 91 -15 110 -85 103 -42 -4 -48 -22 -53 -176 l-5
-147 -154 -161 c-85 -88 -157 -160 -161 -159 -4 0 -18 27 -31 60 -22 51 -25
73 -25 183 -1 134 13 197 61 295 73 146 177 247 326 320 129 62 530 193 594
194 29 1 33 -2 39 -35z m-4541 -19 c53 -53 16 -145 -58 -145 -45 0 -81 38 -81
85 0 76 87 113 139 60z m3173 3 c26 -26 0 -88 -36 -88 -21 0 -52 29 -52 48 0
40 61 67 88 40z m-1600 -53 c-3 -3 -9 2 -12 12 -6 14 -5 15 5 6 7 -7 10 -15 7
-18z m-2584 -1 c32 -31 14 -84 -29 -84 -46 0 -62 57 -23 84 28 20 33 20 52 0z
m2891 -74 l0 -65 -42 -3 c-65 -5 -83 10 -83 66 0 62 13 74 75 70 l50 -3 0 -65z
m1653 -112 c19 -19 15 -66 -7 -78 -31 -16 -49 -12 -67 15 -15 23 -15 27 0 50
18 27 54 33 74 13z m-2205 -19 c14 -23 1 -67 -23 -74 -52 -16 -90 37 -54 76
21 23 62 22 77 -2z m209 -6 c26 -23 23 -59 -7 -79 -51 -33 -104 21 -71 71 19
29 51 32 78 8z m1699 -18 c14 -11 23 -28 21 -37 -2 -9 4 -30 12 -47 17 -31 19
-88 7 -131 -7 -24 -9 -23 -19 16 -29 101 -153 132 -202 51 -26 -41 -25 -83 1
-126 l20 -34 -42 -43 c-41 -42 -44 -43 -62 -26 -37 32 -57 92 -57 173 0 70 3
81 33 125 46 70 121 107 203 102 41 -3 68 -10 85 -23z m-1131 -17 c14 -26 13
-29 -7 -50 -19 -18 -27 -20 -50 -12 -34 11 -43 53 -17 78 23 24 55 16 74 -16z
m-2117 -52 c60 -26 98 -86 112 -178 7 -44 9 -47 49 -57 78 -19 160 -112 191
-216 l14 -44 -62 -78 c-62 -79 -283 -303 -299 -303 -4 0 -8 12 -8 27 0 21 25
53 115 143 63 64 115 125 115 134 0 29 -28 73 -51 79 -34 9 -62 -8 -121 -72
-30 -34 -57 -61 -59 -61 -2 0 -4 94 -4 209 0 237 -1 241 -71 241 -71 0 -74
-10 -74 -248 l0 -203 -63 65 c-49 52 -69 66 -91 66 -40 0 -66 -26 -66 -66 0
-27 13 -47 73 -111 41 -43 90 -97 110 -119 l37 -41 0 -116 0 -116 -42 15 c-89
31 -196 120 -251 210 -66 107 -91 295 -54 414 33 112 119 200 194 200 29 0 30
2 36 52 17 138 151 225 270 174z m1885 -8 c7 -7 12 -36 12 -65 l0 -53 -65 0
-65 0 0 53 c0 64 11 77 65 77 23 0 46 -5 53 -12z m871 -12 c21 -25 9 -69 -21
-80 -34 -12 -58 6 -58 45 0 42 54 66 79 35z m-319 -41 c16 -8 39 -29 51 -47
13 -17 18 -28 11 -24 -7 4 -12 2 -12 -3 0 -6 -5 -11 -11 -11 -5 0 -8 4 -5 8 3
5 -5 7 -17 6 -12 -1 -39 -3 -60 -3 -23 -1 -36 -5 -32 -11 4 -7 -11 -8 -43 -4
-43 5 -52 2 -80 -21 l-32 -27 0 -114 0 -114 -64 0 c-36 0 -67 4 -70 9 -10 16
13 171 32 214 26 59 74 111 125 136 51 26 163 29 207 6z m-1298 -17 c21 -6 52
-27 68 -45 26 -29 30 -42 30 -93 0 -49 -4 -64 -26 -90 -35 -41 -74 -60 -126
-60 -156 0 -206 217 -64 281 48 22 65 23 118 7z m406 -118 c27 -17 32 -25 32
-59 0 -31 -6 -44 -27 -61 -49 -39 -123 -6 -123 54 1 37 18 62 51 75 32 13 30
13 67 -9z m-2481 -2 c-2 -7 0 -24 4 -38 9 -24 8 -24 -6 -6 -16 21 -19 39 -8
49 10 11 15 8 10 -5z m1699 -72 c62 -62 40 -159 -42 -186 -44 -15 -81 -6 -116
27 -37 35 -45 81 -23 127 23 49 50 66 103 66 37 0 50 -6 78 -34z m1120 -10
c14 -11 19 -26 19 -61 0 -35 -5 -50 -19 -61 -27 -19 -75 -18 -98 3 -22 20 -24
80 -2 111 18 26 69 30 100 8z m-2516 -76 c0 -33 -21 -53 -51 -48 -29 4 -43 29
-35 61 12 48 86 37 86 -13z m3435 26 c28 -43 -18 -91 -63 -67 -28 15 -35 40
-17 67 21 32 60 31 80 0z m-1237 -247 l2 -176 79 -76 79 -77 424 0 c316 0 427
-3 436 -12 7 -7 12 -25 12 -40 0 -21 -6 -31 -26 -38 -15 -6 -198 -10 -452 -10
l-427 0 -35 33 c-19 17 -70 69 -113 114 l-77 82 6 178 c3 98 8 184 10 191 2 9
17 12 41 10 l38 -3 3 -176z m2525 126 c20 -3 37 -11 37 -18 0 -12 -44 -37 -66
-37 -7 0 -14 -5 -16 -11 -2 -7 -17 -8 -41 -4 -30 6 -35 10 -26 21 9 11 8 14
-7 14 -16 1 -15 4 8 24 16 14 36 22 50 20 12 -2 40 -6 61 -9z m-1097 -50 c20
-30 10 -63 -21 -71 -42 -10 -60 -1 -63 32 -6 59 53 86 84 39z m-1894 -2 c17
-15 18 -38 18 -296 l0 -279 141 -139 142 -139 546 -1 c537 0 631 -4 637 -24 2
-5 -21 -25 -50 -42 l-54 -33 -556 0 -556 0 -170 166 -170 167 0 300 c0 266 2
303 17 319 20 22 31 23 55 1z m221 5 c13 -11 17 -46 23 -228 l6 -215 97 -98
96 -98 519 2 c553 1 535 3 536 -47 0 -44 4 -44 -559 -44 l-534 0 -123 123
-123 122 -2 234 c-3 219 -2 234 16 247 23 17 27 17 48 2z m2625 -20 c-3 -7
-15 -14 -29 -16 -24 -4 -24 -3 -4 12 24 19 38 20 33 4z m-4958 -2 c0 -2 -7 -7
-16 -10 -8 -3 -12 -2 -9 4 6 10 25 14 25 6z m107 -33 c-3 -10 -5 -4 -5 12 0
17 2 24 5 18 2 -7 2 -21 0 -30z m-13 -17 c5 -28 -6 -86 -17 -86 -1 0 -27 25
-57 54 -38 40 -47 53 -32 49 12 -3 22 -10 22 -16 0 -6 7 -1 16 11 8 12 26 22
38 22 19 0 25 -7 30 -34z m2801 -31 c50 -49 17 -135 -51 -135 -44 0 -74 29
-74 74 0 76 74 113 125 61z m280 0 c31 -30 32 -73 4 -109 -36 -45 -106 -33
-129 24 -10 24 -10 36 0 60 23 55 83 68 125 25z m284 -1 c43 -55 11 -134 -55
-134 -46 0 -74 29 -74 77 0 76 85 113 129 57z m288 11 c60 -42 22 -145 -53
-145 -46 0 -74 29 -74 77 0 69 71 107 127 68z m-2123 -21 c21 -20 20 -43 -1
-66 -20 -22 -46 -23 -67 -2 -31 30 -9 84 34 84 10 0 26 -7 34 -16z m-1283 -13
c20 -16 22 -23 14 -47 -18 -51 -95 -40 -95 13 0 15 35 53 49 53 5 0 19 -9 32
-19z m5048 6 c-2 -1 -15 -11 -29 -22 l-25 -20 19 23 c11 12 24 22 29 22 6 0 8
-1 6 -3z m-3485 -39 c20 -57 -57 -93 -90 -43 -15 23 -15 27 0 51 24 36 76 31
90 -8z m2426 2 c84 -16 156 -54 224 -120 136 -131 177 -299 115 -478 -41 -119
-112 -200 -222 -253 -176 -83 -368 -52 -513 84 -95 88 -134 186 -134 332 1
281 252 488 530 435z m767 -54 c5 -5 -19 -6 -56 -2 -35 3 -113 6 -173 6 -60 0
-107 3 -105 8 7 10 323 -1 334 -12z m-5104 -161 c116 -20 261 -94 243 -123
-11 -18 -51 -14 -90 9 -19 11 -41 17 -47 13 -8 -5 -9 -3 -4 6 6 10 4 12 -9 7
-9 -4 -15 -3 -12 2 9 14 -109 42 -186 43 -187 3 -323 -69 -392 -208 -21 -42
-26 -66 -26 -125 0 -41 5 -92 10 -114 9 -39 8 -41 -40 -83 -62 -54 -84 -109
-78 -192 l4 -61 -75 3 c-42 2 -76 8 -77 13 0 6 -9 28 -19 50 -27 61 -44 195
-35 279 29 250 237 444 523 485 94 13 223 12 310 -4z m5082 -21 c150 -35 332
-163 348 -244 19 -95 -1 -190 -49 -231 -45 -38 -93 -58 -120 -50 l-28 7 -1
100 c0 88 -3 106 -28 156 -48 97 -150 165 -267 175 l-58 6 -4 46 c-3 25 -3 49
-2 52 5 10 143 -1 209 -17z m-3319 -3 c86 -39 145 -148 129 -240 -17 -104
-101 -171 -211 -171 -124 1 -207 71 -221 189 -10 84 41 181 114 220 49 26 134
27 189 2z m-1806 -42 c0 -6 7 -8 16 -5 8 3 12 2 9 -4 -8 -13 -35 -13 -35 0 0
5 -8 7 -17 4 -15 -5 -16 -4 -3 5 19 14 30 14 30 0z m1215 -49 c-3 -5 -12 -10
-18 -10 -7 0 -6 4 3 10 19 12 23 12 15 0z m-148 -52 c-3 -8 -6 -5 -6 6 -1 11
2 17 5 13 3 -3 4 -12 1 -19z m100 16 c-3 -3 -12 -4 -19 -1 -8 3 -5 6 6 6 11 1
17 -2 13 -5z m-1067 -14 c0 -5 -2 -10 -4 -10 -3 0 -8 5 -11 10 -3 6 -1 10 4
10 6 0 11 -4 11 -10z m-168 -108 c37 -35 42 -45 45 -93 5 -64 -18 -108 -69
-135 -131 -68 -269 68 -197 195 28 51 63 70 127 71 48 0 57 -4 94 -38z m695
23 c64 -19 162 -84 197 -130 25 -33 26 -38 15 -70 -14 -38 -13 -37 -81 -35
-49 1 -79 -9 -115 -42 l-21 -20 -61 51 c-108 89 -204 131 -306 134 -30 1 -55
4 -55 7 0 14 135 87 195 106 55 18 171 17 232 -1z m688 -79 c13 -19 14 -29 6
-45 -25 -45 -91 -33 -91 17 0 54 56 72 85 28z m3756 -7 c8 -16 8 -28 0 -46 -9
-20 -17 -24 -43 -21 -39 4 -61 45 -38 72 19 24 67 20 81 -5z m-4156 -209 c-13
-21 -25 -8 -25 28 l1 37 15 -28 c8 -15 12 -32 9 -37z m-619 0 c16 -6 36 -25
45 -43 9 -18 28 -54 42 -82 14 -27 28 -74 31 -102 l7 -53 -143 -1 c-79 -1
-183 -2 -233 -3 l-90 -1 3 40 c4 51 36 122 70 158 74 78 189 115 268 87z
m1277 -16 c86 -22 152 -58 215 -117 58 -56 108 -130 97 -147 -4 -7 -166 -10
-481 -10 l-475 0 23 41 c54 97 205 202 334 233 80 19 213 19 287 0z m495 -29
c66 -20 105 -54 120 -103 15 -48 16 -116 2 -107 -5 3 -23 -1 -39 -10 -28 -14
-30 -14 -24 2 4 11 3 14 -5 9 -7 -4 -12 -2 -12 5 0 23 -89 146 -131 183 l-43
36 40 0 c22 0 63 -7 92 -15z m3019 -25 c26 -11 54 -27 62 -35 9 -8 29 -26 46
-39 l30 -24 -80 -7 c-104 -10 -191 -36 -272 -80 l-65 -35 -176 2 -176 3 74 37
c41 21 102 58 135 83 70 54 142 93 205 111 59 18 158 10 217 -16z m-1195 -64
c32 -36 70 -71 85 -79 16 -8 50 -26 77 -41 l50 -26 -205 0 c-112 0 -221 -3
-241 -6 -43 -7 -46 1 -22 47 32 63 151 169 188 169 6 0 37 -29 68 -64z m-3097
44 c-3 -5 -12 -10 -18 -10 -7 0 -6 4 3 10 19 12 23 12 15 0z m-32 -35 c-3 -9
-8 -14 -10 -11 -3 3 -2 9 2 15 9 16 15 13 8 -4z m-29 -40 c-4 -8 -10 -12 -15
-9 -11 6 -2 24 11 24 5 0 7 -7 4 -15z m-1042 -12 c36 -32 17 -83 -32 -83 -48
0 -67 45 -33 82 20 22 41 23 65 1z m2872 -43 l1 -55 -52 -3 -53 -3 0 61 0 61
51 -3 51 -3 2 -55z m286 -1 l0 -60 -52 3 -53 3 -3 58 -3 57 56 0 55 0 0 -61z
m288 -2 l3 -58 -53 3 -53 3 -3 44 c-5 66 1 73 55 69 l48 -3 3 -58z m297 13 c1
-68 -1 -70 -61 -70 l-54 0 0 60 0 61 58 -3 57 -3 0 -45z m975 -245 c113 -2
435 -4 715 -4 281 -1 515 -5 522 -9 7 -4 19 -26 28 -47 l16 -40 -26 30 -27 30
-951 1 c-524 1 -925 -2 -892 -6 70 -8 51 -10 -125 -14 -120 -3 -165 3 -120 15
14 4 -36 4 -110 1 -74 -3 -136 -9 -138 -14 -2 -4 -10 -8 -18 -8 -8 0 -14 -8
-14 -18 0 -14 12 -21 48 -29 l47 -10 -70 -1 c-48 -1 -65 1 -55 8 10 7 -8 9
-60 9 -53 -1 -68 -3 -50 -9 20 -6 21 -8 5 -8 -11 0 -29 3 -40 7 -12 5 -26 4
-34 -3 -10 -8 -548 -12 -2004 -14 l-1990 -3 6 42 c7 50 34 91 68 100 22 6
4824 1 5269 -6z m-987 -62 c-7 -2 -19 -2 -25 0 -7 3 -2 5 12 5 14 0 19 -2 13
-5z m80 -30 c-7 -2 -21 -2 -30 0 -10 3 -4 5 12 5 17 0 24 -2 18 -5z m-80 -10
c-13 -2 -35 -2 -50 0 -16 2 -5 4 22 4 28 0 40 -2 28 -4z m2273 -225 c-3 -24
-11 -73 -18 -110 l-11 -68 -517 0 c-531 0 -940 -8 -940 -19 0 -4 23 -6 52 -6
31 0 53 -5 55 -12 3 -7 -4 -12 -14 -13 -44 -1 -92 -8 -102 -15 -14 -8 -14 -25
0 -25 5 0 8 4 5 9 -9 14 20 21 33 8 13 -13 15 -31 2 -23 -11 7 -41 -3 -41 -13
0 -4 8 -16 18 -27 24 -25 29 -92 6 -73 -21 17 -30 3 -10 -16 9 -9 21 -13 27
-9 8 4 9 3 5 -4 -11 -18 -24 -14 -53 14 l-25 25 -15 -21 c-8 -11 -17 -18 -21
-16 -4 2 -13 -2 -20 -10 -10 -12 -10 -14 2 -14 8 0 24 10 35 21 18 20 21 20
36 5 9 -9 13 -17 8 -17 -4 -1 6 -5 22 -9 32 -8 -46 -12 -275 -12 -99 0 -115
-2 -75 -8 28 -5 156 -9 285 -9 l236 -1 12 34 c29 80 101 130 187 130 86 0 158
-50 187 -130 l12 -34 217 0 c206 0 218 1 224 19 3 11 15 31 26 45 17 21 29 26
65 26 37 0 51 -6 75 -29 75 -76 -5 -199 -106 -162 -20 7 -115 11 -267 11
l-236 0 -12 -30 c-7 -17 -33 -48 -57 -70 -98 -86 -255 -57 -305 57 l-20 45
-106 -8 c-59 -4 -132 -7 -162 -7 -30 0 -49 -2 -42 -4 10 -4 7 -9 -8 -20 -26
-18 -38 -10 -19 14 12 15 12 16 -4 10 -10 -4 -27 -7 -38 -7 -10 0 -19 -6 -19
-14 0 -8 -5 -18 -12 -22 -8 -5 -9 -2 -5 9 4 11 1 17 -7 17 -8 0 -17 -6 -19
-12 -4 -9 -6 -7 -6 3 -1 11 -11 16 -33 16 -18 0 -41 3 -50 7 -14 6 -18 3 -18
-10 0 -12 -3 -15 -8 -8 -4 6 -38 14 -75 16 -55 5 -67 3 -63 -8 3 -7 0 -16 -6
-20 -6 -4 -8 -3 -4 4 3 6 1 14 -6 18 -17 11 -97 13 -104 3 -2 -5 -18 -6 -34
-2 -19 3 -30 1 -30 -6 0 -8 -7 -7 -25 1 -18 8 -28 8 -39 -1 -10 -8 -16 -9 -21
-1 -9 14 -25 13 -20 -2 3 -7 -6 -18 -20 -25 -22 -10 -29 -8 -50 13 -31 31 -40
31 -19 -1 9 -14 23 -25 30 -25 8 0 14 -4 14 -10 0 -5 -7 -10 -15 -10 -8 0 -15
-7 -15 -15 0 -8 -4 -15 -9 -15 -5 0 -11 7 -15 15 -3 8 -13 15 -23 15 -15 0
-15 2 3 14 11 8 15 18 10 23 -5 4 -11 2 -13 -4 -5 -13 -33 -18 -33 -7 0 4 8
13 17 20 10 7 14 16 10 21 -5 4 -14 0 -21 -10 -14 -18 -36 -23 -36 -8 0 5 6
12 13 15 6 2 1 3 -12 2 -14 -2 -27 -9 -29 -16 -3 -7 0 -10 6 -6 6 3 14 0 19
-7 4 -7 16 -16 26 -20 18 -7 24 -37 7 -37 -5 0 -10 5 -10 10 0 6 -9 10 -20 10
-11 0 -20 7 -20 15 0 9 -9 15 -25 15 -14 0 -25 -4 -25 -10 0 -5 5 -10 11 -10
6 0 17 -7 25 -15 8 -8 21 -12 29 -9 8 4 15 1 15 -5 0 -18 -4 -26 -12 -24 -5 2
-8 0 -8 -5 0 -4 -16 -16 -35 -26 -19 -11 -35 -25 -35 -33 0 -7 -3 -12 -7 -12
-21 3 -33 -2 -33 -16 0 -8 4 -15 8 -15 12 0 52 39 52 50 0 6 6 10 14 10 8 0
22 7 30 16 9 8 16 13 16 9 0 -3 11 5 24 19 23 26 46 34 46 18 0 -5 -11 -14
-25 -20 -25 -11 -34 -32 -15 -32 6 0 10 5 10 12 0 6 7 4 18 -5 20 -18 47 -23
37 -7 -3 5 -2 10 4 10 6 0 7 8 4 18 -6 15 -5 16 12 2 11 -9 16 -10 11 -2 -4 6
-2 12 3 12 6 0 11 -7 11 -15 0 -8 5 -15 10 -15 6 0 10 -5 10 -11 0 -15 -26
-39 -42 -39 -8 1 -7 6 6 15 10 7 15 18 11 24 -10 17 -19 13 -30 -11 -6 -13
-18 -24 -29 -26 -13 -3 -16 0 -11 9 6 9 3 11 -8 6 -9 -3 -19 -2 -22 3 -8 13
-25 13 -25 -1 0 -5 5 -7 12 -3 7 4 8 3 4 -4 -9 -15 -33 -15 -38 -1 -3 8 -10 8
-26 -2 -21 -13 -23 -32 -9 -143 2 -16 -5 -20 -42 -23 -29 -2 -48 2 -55 11 -14
18 -56 31 -56 17 0 -6 9 -11 20 -11 11 0 20 -4 20 -10 0 -16 -50 -12 -67 5 -8
8 -19 13 -24 9 -5 -3 -7 5 -6 18 2 13 12 25 23 27 16 3 17 1 5 -13 -7 -9 -9
-16 -3 -16 16 0 31 25 23 38 -4 7 -15 10 -24 6 -20 -7 -22 6 -4 26 6 8 0 5
-14 -8 -14 -12 -33 -22 -43 -22 -13 0 -17 -5 -13 -20 3 -10 0 -21 -7 -24 -6
-2 -3 -5 8 -5 12 -1 16 4 13 14 -8 20 5 26 20 10 10 -11 10 -15 0 -19 -9 -3
-8 -7 3 -15 8 -5 18 -7 22 -5 4 3 8 1 8 -5 0 -6 -64 -10 -166 -10 -131 -1
-164 1 -158 11 6 10 4 11 -7 1 -20 -20 -816 -19 -816 1 0 7 5 13 11 13 35 -1
46 5 46 23 0 11 -5 20 -11 20 -5 0 -8 4 -5 9 4 5 -6 14 -21 19 -22 8 -2 10 86
10 106 -1 112 -2 81 -14 -22 -10 -30 -19 -26 -29 4 -13 -2 -15 -30 -13 -19 1
-38 6 -40 10 -10 15 -24 8 -24 -13 0 -16 4 -19 20 -14 11 4 20 2 20 -4 0 -6
-19 -12 -42 -12 -34 -2 -37 -3 -14 -6 17 -3 49 -2 73 2 38 5 45 11 58 42 9 20
18 33 22 30 3 -4 0 -13 -6 -21 -9 -11 -9 -16 0 -21 8 -6 8 -9 -1 -15 -8 -5 -7
-9 4 -13 9 -4 16 -2 16 3 0 6 5 10 11 10 5 0 7 -4 4 -10 -4 -6 5 -10 22 -9 17
1 21 3 10 6 -9 2 -15 9 -12 14 4 5 -2 9 -12 9 -15 0 -16 2 -3 10 20 13 30 12
28 -2 -2 -7 7 -14 20 -16 12 -2 22 -8 22 -13 0 -5 5 -9 11 -9 21 0 39 29 45
72 4 30 3 39 -4 29 -9 -12 -15 -13 -37 -3 -30 14 -89 16 -81 3 4 -5 20 -7 37
-4 38 6 31 -12 -8 -20 -20 -4 -31 0 -41 14 -12 18 -28 19 -260 19 l-247 0 -85
-80 c-70 -66 -91 -80 -120 -81 -30 -2 -31 -3 -8 -6 l27 -4 -20 -20 c-12 -12
-18 -23 -15 -26 3 -3 17 9 31 26 15 17 32 31 37 31 6 0 17 8 25 18 8 9 12 11
8 5 -7 -15 4 -17 24 -4 7 5 11 13 8 18 -5 8 18 10 43 3 3 0 -11 -9 -30 -20
-27 -15 -30 -19 -14 -20 11 0 25 5 32 12 15 15 27 4 16 -14 -5 -7 -9 -25 -10
-40 -1 -23 0 -25 12 -13 8 7 11 21 8 29 -3 9 -2 16 4 16 6 0 12 -6 15 -12 4
-10 7 -10 18 -1 11 11 9 15 -7 27 -16 13 -17 17 -5 28 10 9 12 9 7 1 -4 -7 -3
-13 3 -13 12 0 37 25 44 42 2 7 7 10 11 7 3 -3 -5 -17 -18 -32 -21 -22 -23
-31 -15 -69 11 -60 11 -60 -11 -48 -16 9 -18 8 -14 -5 4 -8 13 -15 21 -15 9 0
29 -13 44 -30 16 -16 41 -32 56 -36 46 -10 53 -13 53 -24 0 -8 -11 -9 -31 -5
-23 5 -29 4 -24 -4 4 -7 2 -18 -4 -25 -16 -19 35 -42 55 -25 11 9 14 6 14 -15
l0 -26 -389 0 c-360 0 -389 1 -387 17 0 10 -7 19 -16 21 -13 2 -18 -3 -18 -17
0 -12 -6 -21 -14 -21 -9 0 -13 10 -12 25 1 18 7 25 22 25 27 0 44 19 44 48 0
21 -2 23 -15 12 -9 -7 -14 -19 -11 -26 3 -7 -9 -15 -32 -19 -23 -4 -38 -3 -40
4 -2 6 -10 18 -19 26 -8 8 -10 15 -4 15 5 0 11 6 14 13 2 6 3 4 1 -6 -1 -11 6
-22 19 -27 12 -5 16 -9 8 -9 -8 -1 -12 -4 -8 -7 3 -3 10 -3 16 1 7 4 6 17 -4
42 -18 42 -18 46 -5 38 6 -3 10 -2 10 4 0 5 -6 12 -12 15 -10 5 -10 7 0 12 9
4 10 10 3 18 -11 13 -10 33 3 56 7 12 6 13 -5 3 -7 -7 -16 -13 -20 -13 -4 0
-7 6 -6 13 1 47 -3 59 -23 54 -11 -3 -20 -1 -20 3 0 5 -7 16 -16 24 -8 9 -16
24 -17 34 0 10 -6 19 -13 19 -7 0 -10 -6 -7 -14 4 -10 -6 -13 -38 -11 -37 1
-39 2 -11 5 42 6 41 20 -3 25 -22 2 -40 -1 -50 -11 -13 -13 -16 -13 -30 4 -12
17 -14 18 -15 3 0 -12 -8 -16 -27 -15 -25 2 -28 -1 -26 -26 2 -23 -1 -27 -17
-22 -10 3 -21 1 -24 -4 -4 -6 -13 -8 -20 -5 -8 3 -17 1 -20 -4 -3 -5 9 -10 27
-10 52 0 57 -1 57 -14 0 -6 -3 -8 -7 -5 -3 4 -12 2 -20 -5 -10 -8 -17 -8 -25
0 -7 7 -21 12 -32 11 -12 0 -15 -3 -8 -6 21 -8 13 -26 -9 -20 -12 3 -33 1 -46
-4 -33 -12 -40 -5 -23 26 7 14 10 28 7 32 -4 3 -7 -1 -7 -10 0 -9 -4 -17 -10
-17 -5 0 -10 7 -10 15 0 9 -6 15 -12 14 -7 -1 -23 -1 -36 0 -19 1 -21 3 -10
14 8 10 22 12 44 7 25 -6 31 -5 27 6 -3 8 -16 14 -29 14 -12 0 -30 10 -39 23
-16 21 -17 21 -11 1 9 -30 -23 -27 -35 3 -13 34 -20 28 -8 -7 6 -16 18 -30 26
-30 10 0 13 -6 9 -16 -3 -8 2 -26 11 -40 12 -20 18 -22 25 -12 7 9 8 8 4 -5
-3 -10 0 -27 7 -37 11 -18 23 -20 123 -20 118 0 131 6 118 48 -5 13 -4 14 4 3
15 -20 25 5 12 29 -6 12 -9 29 -7 38 3 12 5 10 6 -6 1 -15 5 -21 13 -16 8 5 9
2 5 -10 -4 -10 -4 -16 0 -14 82 42 128 45 179 11 36 -23 67 -97 60 -138 -9
-49 -50 -93 -98 -105 -49 -14 -85 -6 -129 26 -28 21 -44 24 -111 24 -79 0 -86
-3 -67 -30 9 -13 10 -12 5 3 -5 15 2 17 58 17 46 0 65 -4 69 -14 4 -11 -3 -16
-26 -19 -27 -3 -26 -4 10 -5 36 -2 44 -6 49 -27 5 -20 12 -25 39 -25 34 0 55
-14 32 -22 -6 -3 -39 -3 -72 -2 -33 2 -74 0 -90 -5 -17 -5 271 -6 655 -3 l685
5 39 44 c21 24 56 53 77 63 47 24 144 27 195 5 20 -8 41 -12 47 -8 5 3 7 2 4
-4 -4 -5 8 -23 25 -39 41 -39 78 -119 78 -171 0 -23 -9 -62 -20 -88 -11 -26
-17 -52 -13 -57 3 -6 2 -8 -4 -5 -5 4 -23 -7 -39 -24 -69 -73 -178 -94 -260
-51 -77 40 -142 132 -145 207 0 11 -3 14 -6 8 -2 -7 -9 -13 -14 -13 -6 0 -7 5
-4 10 4 7 -145 9 -442 8 -246 -1 -422 -3 -390 -5 31 -2 57 -7 57 -11 0 -4 -19
-6 -41 -4 -29 3 -40 1 -35 -7 4 -6 15 -11 24 -12 12 0 11 -3 -6 -9 -29 -12
-56 -2 -42 15 7 9 2 12 -20 12 -17 0 -30 -5 -30 -11 0 -6 -5 -4 -10 4 -7 11
-5 17 8 22 9 4 -31 7 -90 6 -60 0 -108 -2 -108 -4 0 -15 53 -84 60 -79 5 3 7
-1 4 -9 -3 -9 5 -19 22 -28 15 -7 29 -20 31 -28 3 -10 1 -9 -7 3 -6 9 -15 17
-21 17 -5 0 -2 -11 7 -25 13 -20 24 -25 53 -24 28 2 30 3 10 6 -19 3 -28 11
-32 29 -2 13 0 24 4 24 5 0 9 -8 9 -19 0 -15 8 -19 43 -19 59 -1 67 -3 32 -11
-17 -4 51 -11 164 -15 l194 -8 31 36 c50 58 138 76 204 42 69 -36 100 -133 68
-211 -12 -28 -13 -40 -5 -46 8 -5 8 -8 0 -13 -6 -4 -11 -2 -11 4 0 6 -5 8 -10
5 -6 -4 -7 -11 -4 -17 4 -6 2 -8 -3 -5 -6 4 -24 0 -39 -8 -37 -19 -107 -19
-144 0 -16 8 -40 31 -53 50 -13 19 -26 32 -30 29 -3 -3 -3 3 -1 13 5 19 -2 20
-190 19 -108 -1 -196 -3 -196 -4 0 -12 84 -96 94 -94 6 2 8 0 4 -4 -11 -10 52
-85 64 -78 6 4 8 3 5 -3 -4 -6 5 -21 18 -33 28 -26 33 -16 9 18 -8 12 -11 22
-6 22 15 0 33 -27 36 -54 3 -28 23 -56 40 -55 7 0 7 2 -1 5 -7 3 -11 11 -9 17
1 7 1 9 -1 4 -3 -4 -9 -5 -13 -2 -14 9 0 34 15 29 7 -3 15 3 18 13 2 10 3 -6
3 -34 -2 -58 4 -64 27 -31 15 22 16 22 34 5 15 -15 15 -17 2 -12 -9 3 -23 -1
-32 -9 -20 -21 -21 -20 -122 9 -139 40 -289 103 -495 207 -107 54 -200 98
-208 98 -8 0 -25 -9 -39 -20 -34 -27 -64 -25 -97 5 -32 30 -35 81 -7 112 l20
21 -95 63 c-158 106 -149 102 -188 89 -43 -14 -81 2 -98 42 -12 25 -16 27 -48
22 -45 -8 -44 -7 -27 -41 18 -36 29 -93 18 -93 -12 0 -102 94 -180 188 -245
293 -466 761 -546 1155 -14 68 -25 132 -25 141 0 15 262 16 3316 16 l3317 0
-7 -42z m-1344 -255 c-2 -24 -9 -43 -14 -43 -6 0 -16 -8 -23 -17 -11 -15 -12
-14 -12 10 0 20 5 27 18 27 21 0 24 11 8 27 -8 8 -8 17 1 33 17 31 28 13 22
-37z m-32 -5 c0 -6 -6 -5 -14 1 -12 10 -15 7 -18 -21 -2 -26 -7 -32 -22 -30
-12 2 -15 -1 -11 -8 4 -7 -5 -4 -19 6 -20 13 -24 19 -14 25 8 5 15 2 19 -8 5
-15 6 -14 11 3 3 10 4 22 4 26 -1 4 8 14 19 22 20 15 45 6 45 -16z m15 -100
c-4 -24 -11 -47 -15 -51 -4 -5 -3 14 3 42 12 62 22 68 12 9z m-52 15 c-26 -5
-30 -18 -8 -27 21 -8 19 -36 -2 -36 -15 0 -16 2 -3 10 8 5 10 10 4 10 -14 0
-26 28 -18 41 3 5 15 8 27 8 22 -2 22 -2 0 -6z m5 -94 c-20 -13 -28 -11 -22 5
3 8 12 12 21 9 12 -5 12 -7 1 -14z m-733 -165 c14 -9 25 -21 25 -26 0 -5 9
-17 21 -27 19 -15 20 -18 5 -30 -11 -9 -16 -10 -16 -2 0 6 6 11 13 11 6 0 -1
9 -18 20 -16 11 -26 20 -20 20 5 0 4 5 -3 12 -6 6 -25 11 -43 10 -29 -1 -30 0
-13 13 24 18 20 18 49 -1z m52 10 c-3 -3 -12 -4 -19 -1 -8 3 -5 6 6 6 11 1 17
-2 13 -5z m193 -4 c-18 -12 -30 -13 -30 -2 0 4 10 9 22 9 18 2 20 0 8 -7z
m-320 -10 c0 -5 -7 -10 -16 -10 -8 0 -12 5 -9 10 3 6 10 10 16 10 5 0 9 -4 9
-10z m265 0 c-3 -5 -12 -10 -18 -10 -7 0 -6 4 3 10 19 12 23 12 15 0z m151
-17 c-6 -6 -36 9 -36 18 0 5 9 4 20 -3 10 -7 18 -14 16 -15z m285 12 c11 6 11
5 2 -5 -12 -14 -33 -6 -33 13 0 8 3 7 9 -2 5 -8 14 -10 22 -6z m-541 -5 c0 -5
-7 -10 -16 -10 -8 0 -12 5 -9 10 3 6 10 10 16 10 5 0 9 -4 9 -10z m-210 -17
c0 5 5 5 10 2 18 -11 -9 -47 -30 -40 -10 3 -21 1 -25 -5 -3 -5 -1 -10 4 -10 6
0 11 -7 11 -15 0 -23 18 -18 36 10 9 14 20 25 25 25 16 0 10 -29 -8 -39 -10
-5 -17 -13 -15 -18 2 -4 -1 -9 -6 -11 -10 -3 -46 28 -72 63 -14 18 -14 19 2 7
19 -15 31 -2 21 24 -4 11 -3 15 5 10 6 -3 14 -1 18 5 4 8 9 7 15 -2 5 -8 9
-10 9 -6z m135 -51 c-3 -4 -14 3 -23 16 -14 18 -20 20 -30 10 -17 -17 -15 -28
5 -28 21 0 12 -9 -15 -15 -16 -3 -19 1 -14 18 3 12 12 29 21 38 14 14 18 13
39 -8 13 -14 21 -27 17 -31z m-85 38 c0 -5 -5 -10 -11 -10 -5 0 -7 5 -4 10 3
6 8 10 11 10 2 0 4 -4 4 -10z m360 0 c0 -5 -5 -10 -11 -10 -5 0 -7 5 -4 10 3
6 8 10 11 10 2 0 4 -4 4 -10z m-123 -6 c-3 -3 -12 -4 -19 -1 -8 3 -5 6 6 6 11
1 17 -2 13 -5z m-47 -13 c0 -5 8 -12 18 -14 9 -2 7 -3 -5 -2 -13 1 -23 -2 -23
-6 0 -5 -7 -9 -15 -9 -13 0 -13 3 -3 20 13 21 28 27 28 11z m115 -1 c8 -13 -5
-13 -25 0 -13 8 -13 10 2 10 9 0 20 -4 23 -10z m-483 -42 c-7 -7 -12 -8 -12
-2 0 14 12 26 19 19 2 -3 -1 -11 -7 -17z m528 7 c0 -7 -30 -13 -34 -7 -3 4 4
9 15 9 10 1 19 0 19 -2z m-330 -28 c0 -8 10 -19 23 -26 13 -7 15 -10 4 -6 -13
3 -20 -1 -24 -15 -3 -13 -13 -20 -27 -19 -15 1 -17 3 -4 6 9 2 19 11 22 20 8
19 -12 45 -27 36 -6 -3 -7 -1 -3 5 10 16 36 15 36 -1z m69 -13 c-14 -13 -17
-13 -28 0 -10 12 -9 14 8 9 13 -3 21 -1 21 8 0 7 3 9 7 5 4 -3 0 -13 -8 -22z
m301 14 c0 -4 8 -8 18 -8 9 0 24 -5 32 -10 11 -7 7 -9 -15 -7 -16 1 -36 8 -43
15 -7 6 -21 12 -29 12 -9 0 3 -13 25 -30 l42 -30 577 0 c492 1 581 3 597 15
30 23 70 18 100 -11 29 -29 32 -50 14 -89 -13 -30 -45 -40 -91 -29 -17 4 -285
9 -594 11 l-563 3 0 -49 c0 -144 -188 -245 -306 -165 -21 15 -43 33 -47 40 -6
11 -43 14 -172 14 -164 0 -165 0 -165 -22 0 -18 -2 -20 -9 -8 -6 8 -8 18 -5
22 3 4 -212 7 -478 7 -287 0 -477 -3 -468 -9 8 -5 18 -6 22 -4 4 3 8 -1 8 -8
0 -9 3 -9 10 2 7 10 10 11 10 2 0 -23 -28 -24 -51 -3 -22 20 -34 21 -241 21
-209 0 -218 -1 -228 -21 -17 -30 -70 -59 -111 -59 -44 0 -86 31 -105 76 -23
55 -18 83 25 125 32 33 45 39 80 39 23 0 55 -7 70 -15 16 -8 32 -11 36 -7 3 4
5 0 3 -8 -3 -13 98 -15 855 -18 550 -1 856 1 852 8 -3 5 -1 17 4 27 5 10 12
31 16 46 8 38 77 112 117 124 39 12 208 13 208 1z m-460 -22 c0 -17 -14 -29
-23 -20 -8 8 3 34 14 34 5 0 9 -6 9 -14z m60 -6 c0 -5 -4 -10 -10 -10 -5 0
-10 5 -10 10 0 6 5 10 10 10 6 0 10 -4 10 -10z m435 -10 c3 -6 -1 -7 -9 -4
-18 7 -21 14 -7 14 6 0 13 -4 16 -10z m105 0 c-20 -13 -43 -13 -35 0 3 6 16
10 28 10 18 0 19 -2 7 -10z m-800 -15 c0 -8 -4 -15 -9 -15 -13 0 -22 16 -14
24 11 11 23 6 23 -9z m72 -2 c17 -15 20 -15 28 -3 6 9 10 10 10 4 0 -21 32
-25 46 -7 9 12 13 14 14 5 0 -7 -7 -21 -16 -29 -13 -13 -20 -14 -35 -5 -36 22
-40 8 -9 -28 25 -29 21 -46 -11 -42 -33 5 -49 22 -21 22 25 0 26 3 11 32 -11
19 -12 19 -29 -10 -15 -25 -23 -29 -47 -24 -30 5 -43 18 -42 42 0 9 5 6 11 -7
6 -13 15 -23 20 -23 5 0 3 10 -3 22 -10 18 -8 24 7 35 10 7 24 13 32 13 7 0
10 5 7 10 -10 16 7 12 27 -7z m166 -8 c9 -20 9 -23 -3 -19 -8 3 -22 -2 -32
-11 -13 -13 -18 -14 -21 -5 -3 7 3 19 12 25 9 7 16 17 16 24 0 20 16 12 28
-14z m89 -17 c-3 -7 -5 -2 -5 12 0 14 2 19 5 13 2 -7 2 -19 0 -25z m-1727 -18
c0 -12 -64 -12 -100 0 -19 6 -9 8 38 9 35 1 62 -3 62 -9z m370 -31 c-15 -27
-37 -34 -55 -19 -17 14 -21 35 -5 25 5 -3 18 -1 27 4 31 18 45 14 33 -10z
m-645 1 c-3 -5 1 -10 9 -10 9 0 16 -4 16 -10 0 -5 -7 -10 -15 -10 -7 0 -18 -7
-23 -16 -8 -14 -10 -14 -14 4 -4 15 -2 19 8 15 8 -3 14 0 14 6 0 6 -5 11 -11
11 -5 0 -7 5 -4 10 3 6 11 10 16 10 6 0 7 -4 4 -10z m305 -15 c-13 -14 -28
-25 -33 -25 -6 0 0 11 13 25 13 14 28 25 33 25 6 0 0 -11 -13 -25z m1560 0 c0
-14 -4 -25 -10 -25 -5 0 -10 -7 -10 -15 0 -8 -4 -15 -9 -15 -7 0 -5 36 4 68 7
22 25 13 25 -13z m-1702 10 c-11 -11 -60 -16 -53 -5 3 5 18 10 32 10 15 0 24
-2 21 -5z m42 -5 c0 -5 -4 -10 -9 -10 -6 0 -13 5 -16 10 -3 6 1 10 9 10 9 0
16 -4 16 -10z m1716 -10 c0 -12 -4 -16 -9 -11 -5 5 -6 14 -3 20 10 15 12 14
12 -9z m-2869 -22 c-3 -8 -6 -5 -6 6 -1 11 2 17 5 13 3 -3 4 -12 1 -19z m2673
-6 c3 -3 -5 -1 -17 2 -15 5 -25 1 -33 -11 -11 -16 -11 -17 -6 0 3 9 0 17 -7
18 -7 0 -3 4 8 8 18 8 29 4 55 -17z m-2616 2 c3 -8 2 -12 -4 -9 -6 3 -10 10
-10 16 0 14 7 11 14 -7z m47 -2 c-7 -2 -18 1 -23 6 -8 8 -4 9 13 5 13 -4 18
-8 10 -11z m2734 8 c-3 -5 1 -10 9 -10 9 0 16 -4 16 -10 0 -5 -11 -9 -25 -8
-14 1 -25 3 -25 4 0 12 14 34 22 34 5 0 6 -4 3 -10z m-85 -20 c0 -5 -7 -7 -15
-4 -8 4 -15 8 -15 10 0 2 7 4 15 4 8 0 15 -4 15 -10z m155 0 c3 -5 2 -10 -4
-10 -5 0 -13 5 -16 10 -3 6 -2 10 4 10 5 0 13 -4 16 -10z m-212 -7 c-13 -2
-33 -2 -45 0 -13 2 -3 4 22 4 25 0 35 -2 23 -4z m-2785 -84 c-7 -5 -20 -8 -28
-8 -11 1 -11 2 2 6 9 2 20 14 24 26 7 20 8 20 12 3 2 -10 -2 -22 -10 -27z
m-118 11 c0 -5 -4 -10 -10 -10 -5 0 -10 5 -10 10 0 6 5 10 10 10 6 0 10 -4 10
-10z m60 -4 c0 -2 -7 -7 -16 -10 -8 -3 -12 -2 -9 4 6 10 25 14 25 6z m135 -6
c3 -5 1 -10 -4 -10 -6 0 -11 5 -11 10 0 6 2 10 4 10 3 0 8 -4 11 -10z m4440
-40 c39 -43 9 -110 -51 -110 -18 0 -36 5 -39 10 -4 6 -137 10 -365 10 -313 0
-361 2 -374 16 -19 18 -21 45 -4 62 9 9 105 12 367 12 213 0 362 4 371 10 26
16 76 11 95 -10z m-3165 -25 c-7 -9 -15 -13 -17 -11 -7 7 7 26 19 26 6 0 6 -6
-2 -15z m533 -4 c-4 -14 14 -15 22 -1 3 6 18 10 33 10 23 -1 25 -2 9 -11 -9
-5 -21 -8 -26 -4 -5 3 -13 0 -16 -6 -4 -5 -13 -8 -21 -5 -8 3 -14 0 -14 -6 0
-6 -3 -8 -6 -5 -4 4 -1 14 7 24 12 15 12 16 -4 10 -11 -4 -16 -3 -12 4 9 13
31 5 28 -10z m141 11 c2 -4 -7 -12 -20 -19 -14 -6 -26 -7 -30 -2 -3 5 2 9 11
9 9 0 13 5 10 10 -3 6 1 10 9 10 8 0 17 -3 20 -8z m109 -8 c-7 -18 -33 -26
-33 -10 0 8 -6 16 -12 19 -7 2 1 4 19 4 21 0 30 -4 26 -13z m147 -5 c4 -6 18
-7 35 -3 21 5 26 4 23 -7 -3 -8 -11 -13 -17 -11 -6 1 -11 -4 -11 -10 0 -9 -3
-9 -9 1 -8 13 -12 13 -27 0 -15 -12 -16 -12 -10 9 8 23 -8 32 -18 10 -5 -10
-7 -10 -12 0 -6 13 -34 17 -34 4 0 -4 5 -13 12 -20 7 -7 9 -12 4 -12 -4 0 -15
7 -24 16 -15 15 -15 17 1 29 19 14 78 10 87 -6z m102 -4 c-3 -18 0 -25 11 -25
10 0 13 6 10 20 -4 15 0 20 13 20 11 0 15 -4 9 -8 -5 -4 -11 -18 -13 -31 -3
-34 -10 -38 -26 -16 -13 18 -14 18 -26 -6 -7 -13 -16 -26 -19 -29 -3 -3 -11
-14 -17 -24 -6 -11 -16 -22 -22 -24 -19 -6 -14 17 8 35 24 21 26 33 5 33 -8 0
-15 -4 -15 -10 0 -5 -4 -10 -10 -10 -5 0 -10 8 -10 18 0 14 6 18 28 15 36 -5
55 9 55 41 0 14 5 26 12 26 8 0 10 -9 7 -25z m96 13 c-2 -6 -10 -14 -16 -16
-7 -2 -10 2 -6 12 7 18 28 22 22 4z m196 0 c-5 -8 -2 -9 12 -4 10 4 15 4 11
-1 -5 -4 -22 -8 -38 -9 -27 -2 -28 0 -12 12 22 17 37 18 27 2z m123 6 c-3 -3
-12 -4 -19 -1 -8 3 -5 6 6 6 11 1 17 -2 13 -5z m177 -19 c-9 -14 -18 -25 -21
-25 -5 0 5 18 20 38 17 22 18 13 1 -13z m96 15 c0 -5 -2 -10 -4 -10 -3 0 -8 5
-11 10 -3 6 -1 10 4 10 6 0 11 -4 11 -10z m-907 -20 c-3 -11 -9 -20 -14 -20
-10 0 -12 24 -2 33 13 13 21 7 16 -13z m692 10 c3 -5 -1 -10 -9 -10 -9 0 -16
5 -16 10 0 6 4 10 9 10 6 0 13 -4 16 -10z m-56 -3 c-2 -2 -17 -11 -34 -21
l-30 -17 24 20 c13 12 28 21 34 21 6 0 8 -1 6 -3z m141 -7 c0 -5 -5 -10 -11
-10 -5 0 -7 5 -4 10 3 6 8 10 11 10 2 0 4 -4 4 -10z m74 -6 c3 -8 2 -12 -4 -9
-6 3 -10 10 -10 16 0 14 7 11 14 -7z m38 -2 c-7 -2 -10 -8 -7 -12 3 -5 1 -11
-5 -15 -11 -7 -13 5 -4 29 3 9 11 13 17 9 8 -5 7 -8 -1 -11z m-1092 -2 c0 -5
-2 -10 -4 -10 -3 0 -8 5 -11 10 -3 6 -1 10 4 10 6 0 11 -4 11 -10z m73 -10 c3
-11 2 -18 -1 -16 -4 2 -15 -7 -25 -20 -15 -21 -16 -24 -2 -24 8 0 15 -5 15
-11 0 -5 -5 -7 -10 -4 -6 3 -13 -1 -16 -9 -3 -9 -11 -16 -16 -16 -6 0 -5 6 2
15 10 12 10 18 0 30 -7 8 -16 12 -21 9 -5 -3 -9 0 -9 5 0 15 13 14 28 -1 10
-10 14 -8 18 10 4 12 10 22 15 22 5 0 9 7 9 15 0 21 7 19 13 -5z m860 6 c16
-13 15 -14 -17 -13 -36 1 -47 11 -23 20 18 8 20 8 40 -7z m-818 -6 c3 -5 2
-10 -4 -10 -5 0 -13 5 -16 10 -3 6 -2 10 4 10 5 0 13 -4 16 -10z m412 -20 c-9
-24 -14 -27 -26 -17 -12 10 -12 12 3 15 10 2 15 10 12 18 -3 8 1 14 8 14 12 0
12 -6 3 -30z m172 4 c-13 -7 -26 -10 -28 -8 -8 7 33 33 43 27 5 -3 -2 -12 -15
-19z m444 19 c-7 -2 -13 -12 -13 -21 0 -12 3 -13 11 -5 17 17 39 4 38 -21 -1
-16 -2 -17 -6 -3 -2 9 -11 17 -19 17 -18 0 -18 -9 3 -32 18 -20 4 -25 -16 -5
-11 10 -12 8 -2 -9 8 -17 7 -25 -3 -33 -11 -9 -16 -9 -22 0 -4 8 -3 9 5 5 9
-6 10 8 6 53 -5 54 -3 61 12 60 11 0 13 -3 6 -6z m-1476 -9 c-3 -3 -12 -4 -19
-1 -8 3 -5 6 6 6 11 1 17 -2 13 -5z m243 -12 c7 2 14 -2 17 -8 2 -6 -6 -13
-19 -16 -19 -3 -23 0 -25 20 0 15 2 20 6 13 4 -7 14 -11 21 -9z m55 4 c8 -7
11 -16 8 -19 -5 -6 -33 17 -33 27 0 10 11 7 25 -8z m65 -1 c0 -8 -2 -15 -4
-15 -2 0 -6 7 -10 15 -3 8 -1 15 4 15 6 0 10 -7 10 -15z m190 -3 c0 -2 -6 -10
-14 -17 -12 -12 -16 -12 -26 0 -6 7 -21 16 -33 18 -12 2 -1 4 26 3 26 0 47 -2
47 -4z m435 -10 c-3 -3 -11 0 -18 7 -9 10 -8 11 6 5 10 -3 15 -9 12 -12z m80
8 c-3 -5 -1 -10 6 -10 7 0 10 -3 6 -6 -9 -9 -28 6 -22 17 4 5 8 9 11 9 3 0 2
-4 -1 -10z m130 -5 c26 -12 27 -13 8 -14 -12 -1 -25 4 -29 10 -3 6 -17 9 -30
6 -13 -2 -21 0 -18 4 7 13 34 10 69 -6z m185 0 c0 -8 -4 -15 -10 -15 -5 0 -7
7 -4 15 4 8 8 15 10 15 2 0 4 -7 4 -15z m-1286 -3 c3 -5 -1 -9 -9 -9 -8 0 -15
4 -15 9 0 4 4 8 9 8 6 0 12 -4 15 -8z m516 -26 c-26 -12 -26 -25 0 -23 11 1
20 5 20 9 0 4 7 8 15 8 18 0 20 -16 3 -23 -9 -3 -7 -10 7 -21 18 -14 18 -15 3
-16 -10 0 -18 -4 -18 -10 0 -14 23 -13 38 2 8 8 12 9 12 1 0 -8 8 -8 29 0 17
6 28 15 25 19 -3 4 0 8 6 8 6 0 10 -8 8 -17 -3 -15 -17 -20 -70 -25 -10 -1
-18 -5 -18 -9 0 -4 -8 -6 -17 -5 -13 1 -21 -10 -27 -36 -5 -21 -13 -38 -18
-38 -11 0 -10 37 1 44 5 3 11 17 13 31 3 14 3 23 0 20 -6 -6 -32 14 -32 26 0
5 7 9 16 9 8 0 12 -4 9 -10 -3 -5 1 -10 10 -10 9 0 15 6 12 13 -4 12 -63 15
-74 3 -4 -3 2 -13 13 -21 10 -8 14 -15 7 -15 -6 0 -15 5 -18 11 -4 6 -13 8
-20 5 -16 -6 -108 38 -98 47 3 4 0 7 -8 7 -8 1 1 7 20 15 34 15 59 20 48 9 -3
-4 1 -13 9 -22 11 -11 12 -17 4 -22 -8 -5 -9 -10 -2 -14 14 -8 63 15 59 28 -6
18 -27 18 -27 -1 0 -15 -2 -15 -9 -3 -14 21 -2 33 26 27 16 -3 28 1 36 14 8
13 13 15 19 6 5 -7 0 -16 -12 -21z m-191 -33 c1 -12 9 -24 19 -26 13 -4 11 -5
-5 -6 -13 0 -23 2 -24 7 -7 48 -6 84 1 67 5 -11 9 -30 9 -42z m336 47 c3 -5 1
-10 -4 -10 -6 0 -11 5 -11 10 0 6 2 10 4 10 3 0 8 -4 11 -10z m198 -2 c-2 -5
-15 -8 -29 -8 -14 0 -23 4 -20 9 3 5 17 8 30 7 13 0 22 -4 19 -8z m-2421 -44
c16 -9 16 -10 -2 -22 -17 -11 -20 -10 -20 8 0 10 -9 24 -20 30 -11 6 -20 16
-20 22 0 6 10 2 23 -9 12 -11 30 -24 39 -29z m2711 18 c-5 -22 -23 -31 -23
-12 0 10 23 40 27 36 1 -1 0 -12 -4 -24z m87 12 c0 -8 -4 -12 -10 -9 -5 3 -10
10 -10 16 0 5 5 9 10 9 6 0 10 -7 10 -16z m-1023 -16 c-3 -8 -6 -5 -6 6 -1 11
2 17 5 13 3 -3 4 -12 1 -19z m663 1 c0 -11 -4 -18 -10 -14 -5 3 -7 12 -3 20 7
21 13 19 13 -6z m185 11 c3 -5 -3 -10 -15 -10 -12 0 -18 5 -15 10 3 6 10 10
15 10 5 0 12 -4 15 -10z m278 -10 c3 -11 1 -20 -4 -20 -5 0 -9 9 -9 20 0 11 2
20 4 20 2 0 6 -9 9 -20z m-2713 -15 c0 -8 -4 -17 -10 -20 -17 -10 -11 -25 9
-25 11 0 23 -4 26 -10 4 -6 -7 -10 -26 -10 -31 0 -31 1 -26 35 3 20 2 35 -4
35 -6 0 -8 4 -4 10 8 13 35 1 35 -15z m1490 10 c-6 -8 -8 -20 -4 -27 5 -10 4
-10 -6 -1 -11 10 -11 15 0 28 7 8 15 15 17 15 3 0 0 -7 -7 -15z m720 11 c0 -3
-4 -8 -10 -11 -5 -3 -10 -1 -10 4 0 6 5 11 10 11 6 0 10 -2 10 -4z m110 -6
c-18 -12 -30 -13 -30 -2 0 4 10 9 22 9 18 2 20 0 8 -7z m254 -19 c-2 -3 -12 3
-22 13 -16 17 -16 18 5 5 12 -7 20 -15 17 -18z m-1137 4 c0 -8 -4 -12 -9 -9
-5 3 -6 10 -3 15 9 13 12 11 12 -6z m-577 -5 c0 -5 -7 -10 -15 -10 -8 0 -15 5
-15 10 0 6 7 10 15 10 8 0 15 -4 15 -10z m200 0 c0 -5 -5 -10 -11 -10 -5 0 -7
5 -4 10 3 6 8 10 11 10 2 0 4 -4 4 -10z m503 -17 c7 -39 1 -40 -11 -4 -6 17
-7 31 -3 31 5 0 11 -12 14 -27z m456 24 c-2 -1 -13 -9 -24 -17 -19 -14 -19
-14 -6 3 7 9 18 17 24 17 6 0 8 -1 6 -3z m161 -12 c0 -8 -2 -15 -4 -15 -2 0
-6 7 -10 15 -3 8 -1 15 4 15 6 0 10 -7 10 -15z m40 6 c0 -5 -7 -12 -16 -15
-14 -5 -15 -4 -4 9 14 17 20 19 20 6z m230 5 c0 -3 -4 -8 -10 -11 -5 -3 -10
-1 -10 4 0 6 5 11 10 11 6 0 10 -2 10 -4z m-850 -16 c0 -5 -7 -7 -15 -4 -8 4
-15 8 -15 10 0 2 7 4 15 4 8 0 15 -4 15 -10z m757 -12 c-3 -8 -6 -5 -6 6 -1
11 2 17 5 13 3 -3 4 -12 1 -19z m193 12 c0 -5 -2 -10 -4 -10 -3 0 -8 5 -11 10
-3 6 -1 10 4 10 6 0 11 -4 11 -10z m80 0 c0 -5 -2 -10 -4 -10 -3 0 -8 5 -11
10 -3 6 -1 10 4 10 6 0 11 -4 11 -10z m-2713 -6 c-3 -3 -12 -4 -19 -1 -8 3 -5
6 6 6 11 1 17 -2 13 -5z m1547 -10 c3 -8 2 -12 -4 -9 -6 3 -10 10 -10 16 0 14
7 11 14 -7z m206 6 c0 -5 -2 -10 -4 -10 -3 0 -8 5 -11 10 -3 6 -1 10 4 10 6 0
11 -4 11 -10z m825 0 c-3 -5 -12 -10 -18 -10 -7 0 -6 4 3 10 19 12 23 12 15 0z
m-725 -16 c0 -9 -5 -14 -12 -12 -18 6 -21 28 -4 28 9 0 16 -7 16 -16z m320 6
c0 -5 -8 -10 -17 -10 -15 0 -16 2 -3 10 19 12 20 12 20 0z m82 -9 c10 -8 15
-17 13 -19 -3 -3 -11 0 -19 7 -8 6 -18 11 -22 10 -21 -4 -35 2 -29 11 8 13 35
9 57 -9z m413 9 c3 -5 1 -10 -4 -10 -6 0 -11 5 -11 10 0 6 2 10 4 10 3 0 8 -4
11 -10z m-1035 -28 c0 -15 -2 -15 -10 -2 -13 20 -13 33 0 25 6 -3 10 -14 10
-23z m1140 14 c0 -8 -7 -17 -16 -20 -25 -10 -30 2 -8 19 24 18 24 18 24 1z
m-2790 -6 c0 -5 -7 -10 -16 -10 -8 0 -12 5 -9 10 3 6 10 10 16 10 5 0 9 -4 9
-10z m1097 -2 c-27 -7 -45 -7 -60 0 -18 9 -11 11 38 10 59 0 60 0 22 -10z
m623 -9 c0 -6 -4 -7 -10 -4 -5 3 -10 11 -10 16 0 6 5 7 10 4 6 -3 10 -11 10
-16z m85 11 c13 -6 15 -9 5 -9 -8 0 -22 4 -30 9 -18 12 -2 12 25 0z m515 0 c0
-5 -4 -10 -10 -10 -5 0 -10 5 -10 10 0 6 5 10 10 10 6 0 10 -4 10 -10z m66 1
c-17 -7 -18 -8 -3 -14 9 -3 19 -2 22 3 4 6 12 10 18 10 8 0 9 -3 1 -8 -17 -11
-27 -45 -11 -39 7 3 13 -3 14 -13 1 -15 -2 -16 -22 -6 -17 8 -21 14 -14 23 7
8 4 15 -11 23 -12 6 -25 8 -28 4 -4 -4 -1 -9 6 -11 6 -3 12 -10 12 -16 0 -6
-7 -4 -17 5 -13 14 -14 20 -3 32 7 9 22 16 34 15 20 0 20 -1 2 -8z m104 -5
c-7 -7 -14 -6 -21 1 -9 9 -7 12 9 10 14 -1 18 -5 12 -11z m-878 -23 c-6 -3
-10 -9 -6 -14 3 -5 0 -9 -5 -9 -12 0 -14 11 -5 35 5 12 9 14 18 4 8 -8 8 -13
-2 -16z m336 18 c21 -13 -7 -53 -30 -45 -12 3 -18 0 -18 -10 0 -8 -3 -17 -7
-19 -5 -3 -8 13 -8 34 -1 37 14 58 16 22 0 -14 2 -13 9 5 10 24 18 26 38 13z
m307 -7 c22 -9 48 -16 57 -17 9 -1 15 -3 13 -6 -3 -2 9 -20 26 -39 43 -49 59
-91 59 -157 l0 -55 160 0 c145 0 162 2 179 19 26 26 93 45 127 37 15 -4 45
-25 67 -47 l39 -39 300 0 c253 0 302 2 314 15 21 20 77 19 103 -2 12 -10 24
-35 27 -55 5 -30 2 -41 -19 -62 -29 -29 -73 -34 -103 -11 -16 12 -71 14 -321
15 l-301 0 -21 -34 c-23 -37 -74 -66 -116 -66 -56 0 -125 59 -125 106 l0 24
-174 0 c-165 0 -175 -1 -208 -23 -52 -36 -150 -43 -220 -17 -85 31 -148 112
-148 188 0 15 -6 34 -12 41 -10 11 -10 13 0 7 7 -4 12 -1 12 9 0 24 35 87 64
114 14 13 24 27 21 30 -2 4 4 7 13 8 9 1 35 8 57 17 22 8 51 15 65 15 14 0 43
-7 65 -15z m-584 -31 c-12 -20 -14 -14 -5 12 4 9 9 14 11 11 3 -2 0 -13 -6
-23z m2422 -1 c21 -18 22 -65 3 -81 -11 -9 -194 -13 -713 -15 -384 -1 -720 -3
-748 -4 -33 0 -56 5 -67 15 -22 20 -23 66 -3 83 12 10 174 12 727 12 392 -1
722 3 733 7 23 9 42 4 68 -17z m-2258 8 c3 -5 2 -10 -4 -10 -5 0 -13 5 -16 10
-3 6 -2 10 4 10 5 0 13 -4 16 -10z m35 0 c0 -5 -2 -10 -4 -10 -3 0 -8 5 -11
10 -3 6 -1 10 4 10 6 0 11 -4 11 -10z m-80 -9 c0 -6 -4 -13 -10 -16 -5 -3 -10
1 -10 9 0 9 5 16 10 16 6 0 10 -4 10 -9z m250 5 c0 -3 -4 -8 -10 -11 -5 -3
-10 -1 -10 4 0 6 5 11 10 11 6 0 10 -2 10 -4z m-390 -39 c0 -7 -4 -6 -10 3 -8
12 -10 9 -10 -12 0 -18 -5 -28 -15 -28 -10 0 -15 10 -15 28 0 18 3 23 9 14 7
-11 9 -10 15 3 6 18 26 12 26 -8z m187 8 c-5 -16 -37 -18 -37 -3 0 8 9 14 20
14 11 0 19 -5 17 -11z m31 -15 c1 -16 -1 -30 -6 -30 -6 0 -8 41 -3 58 3 9 7
-3 9 -28z m602 26 c0 -2 -7 -7 -16 -10 -8 -3 -12 -2 -9 4 6 10 25 14 25 6z
m-705 -16 c4 -6 11 -8 16 -5 5 4 9 1 9 -4 0 -14 -17 -14 -25 -1 -4 6 -16 8
-28 5 -17 -5 -19 -4 -7 4 19 13 27 14 35 1z m162 -10 c1 -11 -2 -20 -8 -20 -5
0 -9 9 -9 20 0 11 4 20 8 20 4 0 8 -9 9 -20z m30 -2 c-3 -8 -6 -5 -6 6 -1 11
2 17 5 13 3 -3 4 -12 1 -19z m543 -8 c0 -5 -2 -10 -4 -10 -3 0 -8 5 -11 10 -3
6 -1 10 4 10 6 0 11 -4 11 -10z m-670 -10 c0 -5 -4 -10 -10 -10 -5 0 -10 5
-10 10 0 6 5 10 10 10 6 0 10 -4 10 -10z m-87 -7 c-7 -2 -19 -2 -25 0 -7 3 -2
5 12 5 14 0 19 -2 13 -5z m212 -3 c3 -5 1 -10 -4 -10 -6 0 -11 5 -11 10 0 6 2
10 4 10 3 0 8 -4 11 -10z m-161 -12 c-3 -4 -12 -8 -20 -8 -8 0 -14 4 -14 8 0
4 9 8 19 8 11 0 17 -4 15 -8z m640 3 c4 -5 -3 -7 -14 -4 -23 6 -26 13 -6 13 8
0 17 -4 20 -9z m-576 -19 c6 -18 -15 -14 -22 4 -4 10 -1 14 6 12 6 -2 14 -10
16 -16z m52 8 c0 -5 -5 -10 -11 -10 -6 0 -8 -7 -4 -17 4 -13 3 -15 -5 -7 -6 6
-8 18 -4 27 7 18 24 23 24 7z m-1800 -20 c0 -11 -4 -20 -9 -20 -5 0 -7 9 -4
20 3 11 7 20 9 20 2 0 4 -9 4 -20z m310 10 c-14 -4 -19 -8 -11 -9 8 -1 12 -3
9 -6 -7 -8 -38 5 -38 16 0 5 15 9 33 8 30 -1 31 -1 7 -9z m90 6 c0 -8 -51 -13
-56 -5 -3 5 9 9 25 9 17 0 31 -2 31 -4z m1244 -12 c3 -8 13 -14 23 -14 14 0
15 -2 4 -12 -10 -11 -14 -9 -23 6 -6 12 -13 14 -17 8 -4 -7 -11 -5 -18 6 -9
15 -7 18 7 19 10 1 21 -5 24 -13z m70 0 c4 -10 1 -14 -6 -12 -15 5 -23 28 -10
28 5 0 13 -7 16 -16z m-1764 -3 c0 -6 -4 -13 -10 -16 -5 -3 -10 1 -10 9 0 9 5
16 10 16 6 0 10 -4 10 -9z m1589 -22 c-10 -6 -10 -11 1 -23 14 -18 8 -32 -9
-21 -6 3 -11 22 -11 42 0 31 2 34 15 23 12 -10 13 -15 4 -21z m-795 5 c9 -24
7 -27 -9 -10 -17 17 -19 26 -6 26 5 0 12 -7 15 -16z m119 4 c4 -10 8 -9 16 2
9 12 11 11 11 -7 0 -39 -34 -41 -58 -3 -11 17 -10 20 7 20 11 0 22 -6 24 -12z
m120 -8 c3 -10 0 -18 -5 -17 -6 1 -13 -4 -16 -12 -3 -10 1 -12 17 -8 17 4 24
-1 35 -26 8 -18 30 -47 49 -66 20 -19 34 -38 31 -42 -3 -5 2 -6 10 -3 10 4 16
1 16 -7 0 -7 3 -9 7 -6 3 4 12 2 20 -4 15 -13 18 -49 3 -49 -5 0 -10 5 -10 10
0 6 -7 10 -16 10 -9 0 -12 -5 -8 -12 6 -10 4 -10 -7 0 -15 14 -29 16 -29 3 0
-5 12 -14 28 -20 24 -10 24 -11 3 -7 -14 3 -31 0 -38 -6 -10 -8 -13 -5 -13 15
0 13 -7 30 -15 37 -12 10 -15 10 -15 -4 0 -9 5 -16 10 -16 6 0 10 -7 10 -15 0
-21 -18 -19 -32 5 -7 11 -16 20 -21 20 -4 0 -6 -4 -2 -9 6 -11 -33 -26 -42
-17 -4 3 2 6 11 6 12 0 16 5 12 15 -3 8 -1 15 4 15 16 0 11 17 -6 24 -22 8
-39 -3 -25 -17 15 -15 14 -24 -4 -24 -14 0 -19 10 -16 30 0 4 -3 7 -9 7 -5 0
-10 -10 -10 -22 0 -35 -11 -13 -16 34 -3 23 -13 51 -21 61 -9 9 -11 17 -5 17
6 0 12 -5 14 -11 5 -14 38 0 38 17 0 8 5 14 10 14 17 0 11 -18 -11 -34 -16
-11 -20 -21 -15 -40 8 -31 36 -34 54 -6 7 11 22 20 33 20 17 0 19 -3 10 -14
-13 -16 -4 -49 11 -40 6 4 5 10 -3 14 -10 7 -10 11 0 24 15 18 6 36 -19 36
-10 0 -21 6 -23 13 -3 7 -6 5 -6 -5 -1 -10 -5 -18 -11 -18 -5 0 -10 -7 -10
-15 0 -8 -4 -15 -10 -15 -15 0 -12 19 6 37 9 9 14 26 11 40 -4 20 -2 22 12 11
9 -7 19 -17 23 -23 4 -5 10 -6 13 -3 14 14 -33 51 -58 46 -21 -4 -24 -1 -23
26 1 25 5 31 24 32 12 1 25 4 29 8 9 9 10 8 16 -14z m612 -9 c-3 -6 -11 -11
-16 -11 -5 0 -4 6 3 14 14 16 24 13 13 -3z m955 16 c0 -2 -10 -12 -22 -23
l-23 -19 19 23 c18 21 26 27 26 19z m-2483 -13 c-3 -3 -12 -4 -19 -1 -8 3 -5
6 6 6 11 1 17 -2 13 -5z m1683 -4 c0 -10 -26 -20 -34 -13 -11 12 -6 19 14 20
11 1 20 -2 20 -7z m-927 -6 c8 -8 -3 -34 -14 -34 -5 0 -9 9 -9 20 0 19 11 26
23 14z m681 -15 c-3 -5 -2 -15 3 -22 12 -16 11 -37 -2 -37 -5 0 -10 6 -10 13
0 6 -6 18 -12 25 -10 10 -10 16 0 27 13 14 31 10 21 -6z m121 11 c3 -5 1 -10
-4 -10 -6 0 -11 5 -11 10 0 6 2 10 4 10 3 0 8 -4 11 -10z m869 -5 c-4 -8 -11
-12 -16 -9 -6 4 -5 10 3 15 19 12 19 11 13 -6z m-2408 -10 c-3 -8 0 -15 6 -15
6 0 9 -3 5 -6 -10 -11 -26 6 -20 21 3 8 7 15 10 15 3 0 3 -7 -1 -15z m79 5
c-3 -5 -11 -10 -16 -10 -6 0 -7 5 -4 10 3 6 11 10 16 10 6 0 7 -4 4 -10z m362
4 c-3 -3 -12 -4 -19 -1 -8 3 -5 6 6 6 11 1 17 -2 13 -5z m253 -5 c0 -18 30
-41 46 -35 9 3 14 1 12 -5 -2 -6 -7 -9 -10 -7 -4 2 -14 -6 -22 -17 -9 -12 -15
-15 -16 -7 0 9 -5 10 -19 3 -14 -8 -22 -6 -35 8 -11 13 -14 21 -7 26 6 3 11
-1 11 -9 0 -9 5 -16 10 -16 13 0 13 16 -2 43 -10 20 -10 21 6 8 14 -12 16 -12
10 3 -3 9 -1 16 5 16 6 0 11 -5 11 -11z m1040 1 c0 -5 -2 -10 -4 -10 -3 0 -8
5 -11 10 -3 6 -1 10 4 10 6 0 11 -4 11 -10z m-1694 -17 c21 -28 16 -39 -6 -13
-11 13 -20 25 -20 27 0 9 14 1 26 -14z m599 8 c3 -5 2 -12 -3 -15 -5 -3 -9 1
-9 9 0 17 3 19 12 6z m1025 -11 c0 -5 -4 -10 -10 -10 -5 0 -10 5 -10 10 0 6 5
10 10 10 6 0 10 -4 10 -10z m-1516 -15 c-4 -8 -8 -15 -10 -15 -2 0 -4 7 -4 15
0 8 4 15 10 15 5 0 7 -7 4 -15z m1416 11 c0 -3 -4 -8 -10 -11 -5 -3 -10 -1
-10 4 0 6 5 11 10 11 6 0 10 -2 10 -4z m157 -2 c-3 -3 -12 -4 -19 -1 -8 3 -5
6 6 6 11 1 17 -2 13 -5z m-907 -13 c0 -13 -28 -22 -35 -11 -3 4 1 11 7 13 20
8 28 8 28 -2z m660 -1 c-19 -13 -30 -13 -30 0 0 6 10 10 23 10 18 0 19 -2 7
-10z m-1156 -30 c-6 -6 -10 -3 -10 10 0 13 4 16 10 10 7 -7 7 -13 0 -20z
m1256 20 c0 -5 -5 -10 -11 -10 -5 0 -7 5 -4 10 3 6 8 10 11 10 2 0 4 -4 4 -10z
m-1550 -10 c0 -5 -2 -10 -4 -10 -3 0 -8 5 -11 10 -3 6 -1 10 4 10 6 0 11 -4
11 -10z m1640 -4 c0 -19 -17 -29 -25 -16 -4 6 -11 7 -17 4 -7 -4 -8 -2 -4 5 4
6 12 9 17 6 5 -4 9 -1 9 4 0 6 5 11 10 11 6 0 10 -6 10 -14z m-1515 -15 c-3
-6 -14 -10 -23 -10 -15 1 -15 2 1 6 9 2 17 9 17 15 0 6 3 9 6 5 3 -3 3 -10 -1
-16z m-45 -3 c0 -11 -38 -10 -44 1 -3 5 5 8 19 7 14 0 25 -4 25 -8z m654 -14
c8 -21 -4 -65 -15 -58 -5 3 -5 13 1 24 7 13 7 21 0 25 -12 8 -13 25 -1 25 5 0
12 -7 15 -16z m600 7 c3 -5 -3 -11 -15 -14 -16 -4 -18 -3 -8 9 13 16 16 17 23
5z m151 -1 c-28 -12 -37 -12 -30 0 3 6 16 10 28 9 21 0 21 -1 2 -9z m-815 -4
c0 -3 -4 -8 -10 -11 -5 -3 -10 -1 -10 4 0 6 5 11 10 11 6 0 10 -2 10 -4z m718
-19 c3 -12 -3 -17 -22 -17 -14 0 -26 5 -26 11 0 6 9 8 20 4 11 -3 20 -2 20 4
0 5 -8 12 -17 15 -14 4 -14 4 2 3 11 -1 21 -10 23 -20z m-688 3 c0 -5 -5 -10
-11 -10 -5 0 -7 5 -4 10 3 6 8 10 11 10 2 0 4 -4 4 -10z m752 -53 c-3 -8 -52
46 -52 58 0 4 13 -5 28 -21 15 -16 26 -32 24 -37z m63 54 c3 -5 1 -12 -5 -16
-5 -3 -10 1 -10 9 0 18 6 21 15 7z m90 -28 c-22 -15 -28 -12 -19 10 3 9 12 13
21 10 14 -5 13 -8 -2 -20z m-944 -10 c-8 -15 -10 -15 -11 -2 0 17 10 32 18 25
2 -3 -1 -13 -7 -23z m109 -3 c0 -11 -4 -20 -10 -20 -5 0 -10 9 -10 20 0 11 5
20 10 20 6 0 10 -9 10 -20z m550 16 c0 -3 -4 -8 -10 -11 -5 -3 -10 -1 -10 4 0
6 5 11 10 11 6 0 10 -2 10 -4z m-64 -22 c-19 -18 -20 -26 -6 -40 7 -7 2 -17
-15 -32 -14 -12 -25 -18 -25 -13 0 6 4 12 9 15 4 3 6 17 4 31 -5 21 -8 23 -25
14 -15 -8 -19 -8 -13 0 6 11 60 38 78 40 5 1 1 -6 -7 -15z m84 -14 c-18 -11
-22 -7 -14 14 5 13 10 14 18 6 8 -8 7 -13 -4 -20z m-46 11 c3 -5 -3 -11 -15
-14 -16 -4 -18 -3 -8 9 13 16 16 17 23 5z m124 -11 c12 -19 11 -20 -8 -8 -11
7 -20 16 -20 20 0 15 15 8 28 -12z m197 10 c-3 -5 -12 -10 -18 -10 -7 0 -6 4
3 10 19 12 23 12 15 0z m-958 -32 c-3 -8 -6 -5 -6 6 -1 11 2 17 5 13 3 -3 4
-12 1 -19z m431 4 c2 -7 -2 -10 -12 -6 -9 3 -16 11 -16 16 0 13 23 5 28 -10z
m289 -4 c-3 -8 -6 -5 -6 6 -1 11 2 17 5 13 3 -3 4 -12 1 -19z m268 12 c3 -5 1
-10 -4 -10 -6 0 -11 5 -11 10 0 6 2 10 4 10 3 0 8 -4 11 -10z m-485 -10 c0 -6
-11 -8 -27 -4 -40 10 -41 14 -5 14 18 0 32 -5 32 -10z m155 1 c3 -6 -4 -15
-15 -21 -16 -9 -20 -8 -20 4 0 10 6 13 17 9 11 -4 14 -3 9 5 -4 7 -5 12 -2 12
3 0 7 -4 11 -9z m276 0 c-8 -5 -20 -7 -28 -4 -21 8 -15 13 15 13 20 0 23 -3
13 -9z m-392 -23 c-16 -30 -16 -31 -23 -19 -3 5 1 17 10 25 22 22 27 20 13 -6z
m346 12 c3 -5 2 -10 -4 -10 -5 0 -17 -3 -27 -7 -16 -6 -17 -5 -4 10 17 19 26
21 35 7z m-825 -21 c0 -6 7 -9 15 -5 26 10 18 -40 -10 -58 -14 -9 -25 -12 -25
-7 0 5 9 13 20 16 11 3 20 13 20 21 0 18 -15 18 -34 -1 -8 -8 -24 -15 -35 -15
-15 0 -21 -8 -23 -32 -3 -28 -5 -30 -13 -14 -5 11 -4 25 3 36 8 13 7 21 -1 29
-8 8 -8 11 0 11 6 0 13 -4 15 -8 2 -5 19 -4 38 1 19 5 29 12 23 14 -15 6 -17
23 -3 23 6 0 10 -5 10 -11z m83 4 c-7 -2 -19 -2 -25 0 -7 3 -2 5 12 5 14 0 19
-2 13 -5z m312 -28 c11 -7 17 -16 14 -19 -7 -8 -59 32 -59 45 0 6 5 5 13 -1 6
-6 21 -17 32 -25z m35 25 c0 -5 -11 -10 -25 -10 -14 0 -25 5 -25 10 0 6 11 10
25 10 14 0 25 -4 25 -10z m238 -15 c-3 -3 -9 2 -12 12 -6 14 -5 15 5 6 7 -7
10 -15 7 -18z m40 -2 c-5 -22 -21 -20 -23 4 -1 14 3 19 12 16 8 -3 13 -12 11
-20z m-525 2 c3 -15 -34 -19 -47 -4 -8 9 -8 10 2 5 6 -4 12 -2 12 4 0 14 30 9
33 -5z m435 8 c-11 -3 -18 -14 -18 -29 0 -14 -5 -35 -11 -46 -15 -28 4 -40 54
-34 20 2 37 0 37 -5 0 -15 -74 -10 -98 7 -20 14 -21 17 -7 37 21 31 19 38 -11
27 -33 -13 -44 -13 -44 1 0 6 7 9 15 5 8 -3 15 -1 15 4 0 6 7 10 16 10 9 0 12
5 8 12 -4 6 -3 8 4 4 6 -3 13 -2 17 4 3 5 14 9 23 9 15 -1 15 -2 0 -6z m241
-32 c-2 -6 -10 2 -17 17 -11 25 -11 25 4 10 9 -9 15 -21 13 -27z m-1389 23 c0
-3 -6 -12 -14 -20 -13 -12 -15 -12 -18 0 -2 12 -9 12 -40 2 -34 -12 -36 -12
-35 5 1 16 10 19 54 19 29 0 53 -3 53 -6z m582 -16 c-4 -15 -2 -19 7 -13 8 5
7 -3 -3 -23 -12 -23 -13 -31 -3 -35 6 -2 8 -8 4 -13 -9 -9 -37 22 -37 40 0 6
5 4 10 -4 9 -13 10 -13 11 0 1 8 1 21 0 29 -3 15 6 41 13 41 2 0 2 -10 -2 -22z
m48 12 c0 -5 -4 -10 -10 -10 -5 0 -10 5 -10 10 0 6 5 10 10 10 6 0 10 -4 10
-10z m450 0 c0 -5 -4 -10 -10 -10 -5 0 -10 5 -10 10 0 6 5 10 10 10 6 0 10 -4
10 -10z m223 -20 c-21 -24 -28 -19 -13 9 6 12 15 19 20 16 5 -3 2 -14 -7 -25z
m207 26 c0 -3 -4 -8 -10 -11 -5 -3 -10 -1 -10 4 0 6 5 11 10 11 6 0 10 -2 10
-4z m-759 -50 c15 -16 10 -29 -6 -16 -8 7 -14 24 -14 39 1 20 2 22 6 6 3 -11
9 -24 14 -29z m43 30 c-6 -16 27 -17 38 -1 4 5 6 0 5 -13 -1 -24 -12 -29 -21
-9 -5 10 -7 10 -12 0 -10 -22 -24 -14 -24 12 0 14 4 25 10 25 5 0 7 -6 4 -14z
m-723 -9 c-7 -7 -14 -8 -21 -1 -6 6 -2 10 12 11 16 2 18 -1 9 -10z m49 -22 c0
-5 -5 -3 -10 5 -5 8 -10 20 -10 25 0 6 5 3 10 -5 5 -8 10 -19 10 -25z m540 25
c0 -5 -4 -10 -10 -10 -5 0 -10 5 -10 10 0 6 5 10 10 10 6 0 10 -4 10 -10z
m533 -22 c-2 -5 -10 -4 -17 1 -7 6 -16 8 -20 4 -4 -4 -4 0 -1 9 6 14 10 15 25
6 10 -7 16 -16 13 -20z m162 14 c-3 -3 -11 0 -18 7 -9 10 -8 11 6 5 10 -3 15
-9 12 -12z m-635 -34 c-1 -8 -6 -6 -15 6 -20 26 -19 42 0 22 8 -8 15 -21 15
-28z m300 38 c0 -3 -4 -8 -10 -11 -5 -3 -10 -1 -10 4 0 6 5 11 10 11 6 0 10
-2 10 -4z m250 -16 c9 -18 8 -20 -15 -20 -14 0 -25 4 -25 10 0 5 7 7 15 4 11
-5 13 -2 9 10 -9 23 3 20 16 -4z m-1445 0 c3 -5 1 -10 -4 -10 -6 0 -11 5 -11
10 0 6 2 10 4 10 3 0 8 -4 11 -10z m195 1 c0 -6 -4 -13 -10 -16 -5 -3 -10 1
-10 9 0 9 5 16 10 16 6 0 10 -4 10 -9z m124 -24 c-11 -36 -38 -48 -48 -21 -4
10 -1 14 6 12 17 -6 41 19 32 33 -4 8 -3 9 5 5 7 -5 9 -16 5 -29z m486 23 c0
-5 -2 -10 -4 -10 -3 0 -8 5 -11 10 -3 6 -1 10 4 10 6 0 11 -4 11 -10z m360 0
c0 -5 -2 -10 -4 -10 -2 0 -12 -3 -22 -7 -16 -6 -17 -5 -4 10 17 19 30 22 30 7z
m-1060 -11 c0 -4 -16 -9 -35 -11 -35 -4 -50 8 -17 14 28 6 52 4 52 -3z m546
-87 c-15 -30 -19 -32 -33 -20 -15 11 -16 10 -10 -10 3 -13 3 -21 0 -18 -3 3
-14 1 -24 -5 -26 -13 -24 -7 10 31 16 19 27 40 24 47 -6 16 -24 18 -20 2 1 -6
-3 -13 -10 -16 -7 -2 -10 3 -8 14 2 10 4 21 4 26 2 15 27 6 39 -13 19 -31 28
-24 25 23 l-3 42 11 -35 c9 -27 7 -41 -5 -68z m192 88 c-9 -6 -14 -18 -11 -28
3 -13 -2 -18 -24 -19 -26 -2 -27 -1 -5 7 30 12 28 24 -3 18 -17 -4 -25 -1 -25
9 0 8 4 12 9 9 5 -4 20 -2 33 3 30 13 47 13 26 1z m250 3 c-10 -2 -18 -9 -18
-14 0 -5 -4 -9 -10 -9 -5 0 -10 7 -10 15 0 10 9 15 28 14 16 -1 20 -3 10 -6z
m147 -9 c18 7 20 -5 3 -22 -8 -8 -8 -12 -1 -12 6 0 13 -7 17 -15 8 -22 0 -18
-29 12 -17 19 -25 23 -25 12 0 -8 6 -21 13 -28 10 -11 9 -12 -2 -6 -11 6 -13
4 -8 -8 4 -10 1 -17 -6 -17 -10 0 -13 28 -8 94 1 5 8 3 16 -4 8 -7 22 -10 30
-6z m250 -13 c0 -16 -3 -27 -7 -24 -13 7 -7 53 6 53 1 0 1 -13 1 -29z m-1235
9 c0 -5 -4 -10 -10 -10 -5 0 -10 5 -10 10 0 6 5 10 10 10 6 0 10 -4 10 -10z
m1275 -8 c-3 -3 -11 0 -18 7 -9 10 -8 11 6 5 10 -3 15 -9 12 -12z m85 14 c0
-3 -4 -8 -10 -11 -5 -3 -10 -1 -10 4 0 6 5 11 10 11 6 0 10 -2 10 -4z m100
-11 c0 -8 -4 -15 -10 -15 -5 0 -7 7 -4 15 4 8 8 15 10 15 2 0 4 -7 4 -15z
m-1540 -16 c0 -14 -17 -10 -23 5 -4 10 -1 13 9 9 7 -3 14 -9 14 -14z m699 7
c9 -10 8 -15 -3 -19 -8 -3 -16 2 -19 14 -6 22 6 25 22 5z m241 -2 c0 -8 -5
-12 -10 -9 -6 4 -8 11 -5 16 9 14 15 11 15 -7z m244 1 c-4 -8 -10 -15 -15 -15
-5 0 -9 7 -9 15 0 8 7 15 15 15 9 0 12 -6 9 -15z m-638 -18 c1 -9 -4 -17 -11
-17 -17 0 -28 17 -20 31 9 14 28 6 31 -14z m284 13 c12 -8 10 -10 -8 -10 -13
0 -21 -4 -17 -9 3 -6 -5 -8 -17 -6 -13 3 -30 0 -38 -5 -13 -8 -12 -12 4 -27
15 -14 18 -15 14 -3 -4 11 1 16 13 16 18 0 18 -1 -1 -20 -20 -20 -20 -20 -40
2 l-20 21 24 17 c14 8 30 13 36 9 5 -3 13 1 16 9 7 18 13 19 34 6z m-925 -10
c-3 -5 -13 -10 -21 -10 -8 0 -14 5 -14 10 0 6 9 10 21 10 11 0 17 -4 14 -10z
m135 0 c0 -5 -5 -10 -11 -10 -5 0 -7 5 -4 10 3 6 8 10 11 10 2 0 4 -4 4 -10z
m700 6 c0 -3 -4 -8 -10 -11 -5 -3 -10 -1 -10 4 0 6 5 11 10 11 6 0 10 -2 10
-4z m263 -11 c-3 -9 -8 -14 -10 -11 -3 3 -2 9 2 15 9 16 15 13 8 -4z m244 -8
c-6 -20 -27 -19 -27 2 0 14 5 19 15 14 9 -3 14 -10 12 -16z m137 8 c3 -8 1
-15 -4 -15 -6 0 -10 7 -10 15 0 8 2 15 4 15 2 0 6 -7 10 -15z m-1294 1 c0 -2
-9 -6 -20 -9 -11 -3 -18 -1 -14 4 5 9 34 13 34 5z m145 -17 c24 -12 30 -18 15
-14 -35 9 -42 9 -69 1 -16 -6 -21 -5 -17 3 4 6 0 11 -11 12 -16 0 -16 1 2 9
30 13 37 12 80 -11z m152 7 c0 -8 -6 -12 -15 -9 -8 3 -18 0 -23 -8 -6 -9 -9
-10 -9 -2 0 7 8 17 18 22 23 14 29 13 29 -3z m483 4 c0 -5 -4 -10 -10 -10 -5
0 -10 5 -10 10 0 6 5 10 10 10 6 0 10 -4 10 -10z m54 -6 c5 -14 4 -15 -9 -4
-17 14 -19 20 -6 20 5 0 12 -7 15 -16z m54 -14 c3 -7 0 -10 -7 -6 -6 4 -11 3
-11 -2 0 -5 -11 -17 -25 -26 -14 -9 -25 -12 -25 -6 0 6 9 14 21 18 11 5 20 11
20 15 -3 22 0 28 11 25 6 -2 14 -10 16 -18z m-1036 -12 c-11 -11 -32 -3 -32
12 0 4 9 6 21 3 13 -4 17 -9 11 -15z m68 2 c0 7 3 11 6 7 3 -3 3 -11 -1 -17
-8 -13 -35 5 -35 24 0 6 7 2 15 -8 10 -13 15 -15 15 -6z m514 4 c9 -8 16 -20
16 -26 0 -6 -9 -1 -20 12 -29 33 -25 44 4 14z m96 12 c0 -3 -4 -8 -10 -11 -5
-3 -10 -1 -10 4 0 6 5 11 10 11 6 0 10 -2 10 -4z m275 -6 c3 -5 1 -10 -4 -10
-6 0 -11 5 -11 10 0 6 2 10 4 10 3 0 8 -4 11 -10z m-829 -38 c-9 -8 -26 10
-26 26 1 15 2 15 15 -2 8 -11 13 -21 11 -24z m629 28 c-3 -5 -1 -10 6 -10 7 0
10 -3 6 -6 -9 -9 -28 6 -22 17 4 5 8 9 11 9 3 0 2 -4 -1 -10z m-419 -21 c3 -5
0 -17 -6 -26 -10 -16 -11 -15 -7 5 4 16 1 22 -13 22 -11 0 -21 4 -24 9 -3 4 6
6 19 3 14 -2 28 -8 31 -13z m325 -4 c5 4 9 1 9 -5 0 -7 -7 -9 -16 -6 -9 4 -23
1 -30 -5 -20 -16 -17 -2 4 19 12 13 18 14 20 5 2 -7 8 -11 13 -8z m269 4 c0
-6 -4 -7 -10 -4 -5 3 -10 11 -10 16 0 6 5 7 10 4 6 -3 10 -11 10 -16z m342 -9
c16 -28 16 -29 -2 -18 -10 7 -18 17 -17 22 1 6 -10 10 -26 9 -15 -1 -25 2 -22
8 13 20 50 8 67 -21z m-1057 10 c-3 -5 -12 -10 -18 -10 -7 0 -6 4 3 10 19 12
23 12 15 0z m341 -26 c-6 -13 -18 -24 -26 -23 -10 0 -11 2 -2 6 6 2 10 9 6 14
-3 5 -1 9 5 9 6 0 8 7 5 15 -4 11 -2 13 9 10 12 -5 12 -11 3 -31z m167 30 c7
-7 -2 -34 -12 -34 -4 0 -7 9 -8 20 -2 19 8 26 20 14z m611 -1 c-5 -5 -12 -12
-16 -18 -4 -6 -8 -2 -8 8 0 9 7 17 17 17 9 0 12 -3 7 -7z m37 -2 c-8 -5 -10
-14 -6 -22 6 -11 5 -11 -5 -2 -14 12 -6 33 13 33 8 0 7 -3 -2 -9z m-1321 -10
c0 -6 -4 -13 -10 -16 -5 -3 -10 1 -10 9 0 9 5 16 10 16 6 0 10 -4 10 -9z m177
-41 c22 0 25 -21 7 -41 -9 -10 -14 -22 -9 -27 4 -4 10 -1 12 6 3 6 9 12 15 12
6 0 3 -9 -7 -20 -19 -21 -75 -28 -75 -9 0 6 9 9 19 6 13 -3 18 -1 14 9 -2 7 5
19 16 26 23 14 27 28 9 28 -15 1 -68 45 -68 56 0 4 13 -4 28 -19 15 -15 33
-27 39 -27z m163 40 c0 -5 -4 -10 -9 -10 -6 0 -13 5 -16 10 -3 6 1 10 9 10 9
0 16 -4 16 -10z m63 3 c-7 -2 -21 -2 -30 0 -10 3 -4 5 12 5 17 0 24 -2 18 -5z
m351 -38 c3 -9 0 -12 -10 -8 -7 3 -14 9 -14 13 0 5 -8 7 -18 5 -11 -2 -19 3
-19 10 0 17 53 0 61 -20z m239 29 c-7 -3 -9 -12 -6 -20 8 -21 -5 -17 -17 6 -9
17 -8 20 12 19 13 0 18 -3 11 -5z m57 -14 c0 -11 -2 -20 -4 -20 -2 0 -6 9 -9
20 -3 11 -1 20 4 20 5 0 9 -9 9 -20z m140 -1 c0 -6 -4 -7 -10 -4 -5 3 -10 11
-10 16 0 6 5 7 10 4 6 -3 10 -11 10 -16z m-1120 -5 c0 -8 -5 -12 -10 -9 -6 4
-8 11 -5 16 9 14 15 11 15 -7z m50 0 c0 -2 -7 -4 -15 -4 -8 0 -15 4 -15 10 0
5 7 7 15 4 8 -4 15 -8 15 -10z m426 4 c4 -7 3 -8 -4 -4 -7 4 -12 1 -12 -8 0
-9 7 -16 15 -16 8 0 15 -6 15 -14 0 -7 -7 -19 -15 -26 -12 -10 -15 -10 -15 3
0 8 6 18 13 20 7 3 6 6 -5 6 -9 1 -20 -3 -23 -9 -3 -5 -11 -10 -17 -10 -6 0
-3 9 7 20 10 11 15 20 10 20 -4 0 -2 7 5 15 15 18 17 18 26 3z m291 6 c-3 -3
-12 -4 -19 -1 -8 3 -5 6 6 6 11 1 17 -2 13 -5z m46 -8 c4 -10 1 -13 -8 -9 -8
3 -12 9 -9 14 7 12 11 11 17 -5z m401 -8 c-3 -4 -9 -8 -15 -8 -5 0 -9 4 -9 8
0 5 7 9 15 9 8 0 12 -4 9 -9z m-689 -8 c3 5 11 10 17 10 6 0 4 -8 -5 -18 -19
-20 -23 -37 -7 -27 6 3 10 1 10 -4 0 -27 -30 -4 -44 33 -5 15 -4 17 8 7 10 -8
16 -9 21 -1z m72 -15 c-12 -26 -29 -34 -24 -13 1 10 25 36 34 38 0 0 -4 -11
-10 -25z m357 4 c-6 -11 -24 -2 -24 11 0 5 7 7 15 4 8 -4 12 -10 9 -15z m-901
-9 c-3 -11 -10 -23 -16 -27 -7 -4 -8 0 -4 11 4 10 7 22 7 27 0 5 4 9 9 9 5 0
7 -9 4 -20z m244 -2 c-3 -8 -6 -5 -6 6 -1 11 2 17 5 13 3 -3 4 -12 1 -19z
m559 -41 l41 -45 346 -8 346 -7 31 27 c61 51 135 48 188 -9 79 -86 8 -218
-110 -202 -45 6 -71 26 -88 68 l-12 29 -357 0 -356 0 -13 -30 c-18 -39 -70
-70 -119 -70 -45 0 -94 28 -127 73 -42 57 -14 164 54 204 16 9 27 20 25 23 -2
4 22 3 53 -1 51 -7 62 -13 98 -52z m-631 43 c-3 -5 -11 -10 -16 -10 -6 0 -7 5
-4 10 3 6 11 10 16 10 6 0 7 -4 4 -10z m125 -4 c0 -3 -4 -8 -10 -11 -5 -3 -10
-1 -10 4 0 6 5 11 10 11 6 0 10 -2 10 -4z m300 -14 c0 -10 -22 -32 -32 -32 -5
0 -3 9 4 20 13 20 28 27 28 12z m-405 -30 c-3 -3 -11 0 -18 7 -9 10 -8 11 6 5
10 -3 15 -9 12 -12z m99 2 c3 -8 2 -12 -4 -9 -6 3 -10 10 -10 16 0 14 7 11 14
-7z m100 -8 c-3 -9 -10 -13 -15 -10 -5 3 -3 11 4 19 15 16 19 13 11 -9z m156
14 c0 -5 -4 -10 -10 -10 -5 0 -10 5 -10 10 0 6 5 10 10 10 6 0 10 -4 10 -10z
m-96 -12 c-10 -25 -55 -51 -67 -39 -8 8 -6 11 7 11 10 0 14 4 10 12 -4 7 -3 8
5 4 6 -4 18 0 27 8 19 19 25 20 18 4z m-94 -8 c0 -5 -7 -10 -16 -10 -8 0 -12
5 -9 10 3 6 10 10 16 10 5 0 9 -4 9 -10z m-374 -16 c18 -14 18 -15 -6 -8 -31
8 -50 24 -29 24 8 0 24 -7 35 -16z m540 -6 c-10 -6 -22 -6 -26 -2 -5 5 3 10
18 11 22 1 24 0 8 -9z m-422 -15 c6 -14 -12 -17 -38 -7 -9 3 -14 10 -11 14 8
13 44 8 49 -7z m66 13 c0 -3 -4 -8 -10 -11 -5 -3 -10 -1 -10 4 0 6 5 11 10 11
6 0 10 -2 10 -4z m143 -3 c-7 -2 -21 -2 -30 0 -10 3 -4 5 12 5 17 0 24 -2 18
-5z m157 -9 c0 -8 -4 -12 -10 -9 -5 3 -10 10 -10 16 0 5 5 9 10 9 6 0 10 -7
10 -16z m-127 -14 c-3 -11 -7 -20 -9 -20 -2 0 -4 9 -4 20 0 11 4 20 9 20 5 0
7 -9 4 -20z m207 11 c0 -6 -4 -13 -10 -16 -5 -3 -10 1 -10 9 0 9 5 16 10 16 6
0 10 -4 10 -9z m-50 -11 c0 -5 -5 -10 -11 -10 -5 0 -7 5 -4 10 3 6 8 10 11 10
2 0 4 -4 4 -10z m-199 -17 c13 -16 12 -17 -3 -4 -17 13 -22 21 -14 21 2 0 10
-8 17 -17z m-84 1 c-3 -3 -12 -4 -19 -1 -8 3 -5 6 6 6 11 1 17 -2 13 -5z"/>
<path d="M3556 7619 c-51 -40 -25 -119 40 -119 35 0 47 8 63 37 14 27 1 65
-31 87 -29 21 -40 20 -72 -5z"/>
<path d="M2835 5640 c-4 -6 -11 -8 -16 -5 -15 10 -10 -2 8 -16 14 -12 16 -12
8 0 -6 11 -4 13 8 8 11 -4 17 -1 17 8 0 17 -16 20 -25 5z"/>
<path d="M7278 5244 c-34 -49 -38 -62 -38 -117 0 -73 -21 -124 -75 -185 -52
-58 -115 -77 -263 -77 -61 0 -112 -3 -112 -6 0 -4 21 -20 48 -37 171 -109 413
-36 498 151 24 53 28 75 29 152 0 75 -4 97 -23 133 -12 23 -23 42 -25 42 -1
-1 -19 -26 -39 -56z"/>
<path d="M6983 5205 c-40 -17 -69 -71 -59 -110 11 -44 59 -85 98 -85 111 0
141 163 36 199 -38 13 -36 13 -75 -4z"/>
<path d="M4404 5220 c-36 -14 -64 -59 -64 -102 0 -55 51 -108 104 -108 44 0
82 23 102 61 18 36 18 53 -2 95 -26 54 -85 77 -140 54z"/>
<path d="M2955 4690 c-13 -5 -14 -9 -5 -9 8 0 24 4 35 9 13 5 14 9 5 9 -8 0
-24 -4 -35 -9z"/>
<path d="M2859 4633 c-13 -16 -12 -17 4 -4 9 7 17 15 17 17 0 8 -8 3 -21 -13z"/>
<path d="M2831 4574 c0 -11 3 -14 6 -6 3 7 2 16 -1 19 -3 4 -6 -2 -5 -13z"/>
<path d="M4880 4580 c0 -5 5 -10 11 -10 5 0 7 5 4 10 -3 6 -8 10 -11 10 -2 0
-4 -4 -4 -10z"/>
<path d="M6546 4650 c-47 -27 -105 -80 -89 -80 4 0 1 -5 -7 -10 -8 -5 -10 -10
-3 -10 6 0 20 14 31 31 15 24 20 27 25 15 4 -9 17 -16 31 -16 21 0 25 5 28 33
3 28 6 32 31 31 17 -1 20 0 7 3 -11 2 -18 9 -14 14 3 5 10 6 16 3 7 -4 8 -2 4
4 -4 7 -8 12 -9 11 -1 0 -24 -13 -51 -29z"/>
<path d="M6637 4620 c3 -12 12 -24 20 -27 24 -9 24 3 -1 26 l-25 23 6 -22z"/>
<path d="M6675 4570 c-3 -5 -16 -10 -28 -10 -18 0 -19 -2 -7 -10 22 -14 49
-12 65 4 12 12 12 15 -1 20 -21 8 -22 8 -29 -4z"/>
<path d="M6390 4300 c0 -5 14 -7 33 -3 45 8 47 13 4 13 -20 0 -37 -4 -37 -10z"/>
<path d="M5962 4290 c10 -6 25 -7 40 -1 20 9 18 10 -17 10 -31 0 -36 -2 -23
-9z"/>
<path d="M3008 3823 c12 -2 30 -2 40 0 9 3 -1 5 -23 4 -22 0 -30 -2 -17 -4z"/>
<path d="M3288 3823 c6 -2 18 -2 25 0 6 3 1 5 -13 5 -14 0 -19 -2 -12 -5z"/>
<path d="M3368 3823 c17 -2 47 -2 65 0 17 2 3 4 -33 4 -36 0 -50 -2 -32 -4z"/>
<path d="M3563 3823 c42 -2 112 -2 155 0 42 1 7 3 -78 3 -85 0 -120 -2 -77 -3z"/>
<path d="M3938 3823 c7 -3 16 -2 19 1 4 3 -2 6 -13 5 -11 0 -14 -3 -6 -6z"/>
<path d="M4168 3823 c7 -3 16 -2 19 1 4 3 -2 6 -13 5 -11 0 -14 -3 -6 -6z"/>
<path d="M4498 3823 c6 -2 18 -2 25 0 6 3 1 5 -13 5 -14 0 -19 -2 -12 -5z"/>
<path d="M4848 3823 c6 -2 18 -2 25 0 6 3 1 5 -13 5 -14 0 -19 -2 -12 -5z"/>
<path d="M5063 3823 c9 -2 25 -2 35 0 9 3 1 5 -18 5 -19 0 -27 -2 -17 -5z"/>
<path d="M5278 3823 c7 -3 16 -2 19 1 4 3 -2 6 -13 5 -11 0 -14 -3 -6 -6z"/>
<path d="M5398 3823 c7 -3 16 -2 19 1 4 3 -2 6 -13 5 -11 0 -14 -3 -6 -6z"/>
<path d="M5462 3816 c7 -8 15 -10 16 -5 6 14 262 10 262 -4 0 -9 2 -9 8 -1 9
14 340 14 361 0 10 -6 12 -6 7 2 -5 9 9 12 48 12 47 0 56 -3 56 -17 1 -17 1
-17 14 0 15 20 33 22 38 5 3 -8 7 -6 11 4 5 15 -30 17 -414 17 -362 1 -418 -1
-407 -13z"/>
<path d="M6309 3821 c12 -8 51 -4 51 5 0 2 -15 4 -32 4 -23 0 -29 -3 -19 -9z"/>
<path d="M6363 3815 c-15 -17 -16 -25 -3 -25 5 0 14 9 20 20 12 23 1 26 -17 5z"/>
<path d="M6475 3822 c44 -1 84 -7 89 -12 13 -13 29 -13 21 0 -4 6 7 10 25 10
18 0 29 -4 25 -10 -3 -5 -1 -10 4 -10 6 0 11 5 11 11 0 6 9 8 20 4 11 -4 20
-2 20 4 0 6 -52 10 -147 8 -84 0 -113 -3 -68 -5z"/>
<path d="M6700 3815 c0 -8 5 -15 11 -15 5 0 7 5 4 10 -10 16 7 11 19 -6 6 -8
18 -16 26 -17 8 -2 21 -6 28 -10 8 -5 12 -3 12 8 0 9 -12 18 -30 21 -16 4 -27
10 -24 15 3 5 -6 9 -20 9 -16 0 -26 -6 -26 -15z"/>
<path d="M6788 3818 c32 -11 39 -28 26 -62 -8 -21 -40 -21 -52 0 -6 11 -14 14
-22 9 -10 -6 -8 -10 9 -17 12 -4 20 -11 18 -15 -3 -5 5 -8 17 -8 14 0 30 12
44 33 12 18 17 30 11 26 -8 -4 -7 0 0 15 13 24 23 28 15 6 -4 -8 -1 -15 5 -15
6 0 11 5 11 11 0 5 5 7 11 3 8 -4 8 -9 1 -13 -7 -4 -8 -12 -2 -21 6 -8 10 -10
10 -5 0 6 5 3 10 -5 8 -12 10 -11 10 7 0 12 5 25 10 28 6 3 10 13 10 21 0 11
-18 14 -87 13 -76 -1 -84 -2 -55 -11z m129 -4 c-3 -3 -12 -4 -19 -1 -8 3 -5 6
6 6 11 1 17 -2 13 -5z"/>
<path d="M6425 3800 c3 -5 13 -10 21 -10 8 0 12 5 9 10 -3 6 -13 10 -21 10 -8
0 -12 -4 -9 -10z"/>
<path d="M6965 3800 c3 -5 11 -10 16 -10 6 0 7 5 4 10 -3 6 -11 10 -16 10 -6
0 -7 -4 -4 -10z"/>
<path d="M5888 3793 c7 -3 16 -2 19 1 4 3 -2 6 -13 5 -11 0 -14 -3 -6 -6z"/>
<path d="M5690 3780 c0 -5 5 -10 11 -10 5 0 7 5 4 10 -3 6 -8 10 -11 10 -2 0
-4 -4 -4 -10z"/>
<path d="M5727 3779 c7 -7 15 -10 18 -7 3 3 -2 9 -12 12 -14 6 -15 5 -6 -5z"/>
<path d="M6180 3780 c0 -6 7 -10 15 -10 8 0 15 2 15 4 0 2 -7 6 -15 10 -8 3
-15 1 -15 -4z"/>
<path d="M6515 3780 c-3 -5 -1 -10 4 -10 6 0 11 5 11 10 0 6 -2 10 -4 10 -3 0
-8 -4 -11 -10z"/>
<path d="M6680 3780 c0 -5 5 -10 10 -10 6 0 10 5 10 10 0 6 -4 10 -10 10 -5 0
-10 -4 -10 -10z"/>
<path d="M6414 3769 c-3 -6 -2 -14 3 -18 6 -3 13 -13 16 -21 4 -12 6 -12 6 2
1 9 -4 20 -9 23 -6 4 -8 11 -5 16 4 5 4 9 1 9 -3 0 -8 -5 -12 -11z"/>
<path d="M6606 3768 c3 -4 9 -8 15 -8 5 0 9 4 9 8 0 5 -7 9 -15 9 -8 0 -12 -4
-9 -9z"/>
<path d="M6152 3758 c-7 -7 -12 -16 -12 -21 0 -5 7 -1 16 8 9 9 14 18 12 20
-2 3 -10 -1 -16 -7z"/>
<path d="M6275 3730 c-3 -5 -1 -10 4 -10 6 0 11 5 11 10 0 6 -2 10 -4 10 -3 0
-8 -4 -11 -10z"/>
<path d="M6485 3730 c-3 -5 -1 -10 4 -10 6 0 11 5 11 10 0 6 -2 10 -4 10 -3 0
-8 -4 -11 -10z"/>
<path d="M6081 3721 c-11 -7 -11 -9 0 -13 20 -7 50 3 43 13 -7 11 -25 11 -43
0z"/>
<path d="M6820 3715 c0 -8 4 -15 8 -15 5 0 9 7 9 15 0 8 -4 15 -9 15 -4 0 -8
-7 -8 -15z"/>
<path d="M6895 3720 c4 -6 11 -8 16 -5 14 9 11 15 -7 15 -8 0 -12 -5 -9 -10z"/>
<path d="M6581 3704 c0 -11 3 -14 6 -6 3 7 2 16 -1 19 -3 4 -6 -2 -5 -13z"/>
<path d="M5835 3700 c-3 -5 -1 -10 4 -10 6 0 11 5 11 10 0 6 -2 10 -4 10 -3 0
-8 -4 -11 -10z"/>
<path d="M6448 3703 c6 -2 18 -2 25 0 6 3 1 5 -13 5 -14 0 -19 -2 -12 -5z"/>
<path d="M6855 3700 c-3 -6 1 -7 9 -4 18 7 21 14 7 14 -6 0 -13 -4 -16 -10z"/>
<path d="M6768 3693 c6 -2 18 -2 25 0 6 3 1 5 -13 5 -14 0 -19 -2 -12 -5z"/>
<path d="M6075 3680 c3 -5 11 -10 16 -10 6 0 7 5 4 10 -3 6 -11 10 -16 10 -6
0 -7 -4 -4 -10z"/>
<path d="M5465 3660 c-3 -6 1 -7 9 -4 18 7 21 14 7 14 -6 0 -13 -4 -16 -10z"/>
<path d="M6245 3662 c-10 -7 -18 -32 -10 -32 2 0 9 9 15 20 12 22 11 24 -5 12z"/>
<path d="M6810 3661 c0 -5 -8 -12 -17 -14 -15 -4 -15 -5 -2 -6 9 0 22 6 29 14
9 10 9 15 1 15 -6 0 -11 -4 -11 -9z"/>
<path d="M6310 3639 c0 -5 5 -7 10 -4 6 3 10 8 10 11 0 2 -4 4 -10 4 -5 0 -10
-5 -10 -11z"/>
<path d="M2935 3619 c-44 -3 225 -6 597 -7 438 -1 679 -6 683 -12 3 -5 11 -10
17 -10 6 0 3 8 -7 18 -17 16 -60 17 -614 17 -328 0 -632 -3 -676 -6z"/>
<path d="M6291 3614 c0 -11 3 -14 6 -6 3 7 2 16 -1 19 -3 4 -6 -2 -5 -13z"/>
<path d="M6620 3620 c0 -5 5 -10 10 -10 6 0 10 5 10 10 0 6 -4 10 -10 10 -5 0
-10 -4 -10 -10z"/>
<path d="M7259 3571 c-33 -33 -35 -47 -15 -95 19 -45 74 -66 112 -41 50 33 54
96 9 141 -33 32 -70 31 -106 -5z"/>
<path d="M4260 3571 c0 -6 4 -13 10 -16 6 -3 7 1 4 9 -7 18 -14 21 -14 7z"/>
<path d="M5453 3563 c186 -2 488 -2 670 0 183 1 31 2 -338 2 -368 0 -518 -1
-332 -2z"/>
<path d="M6488 3563 c12 -2 30 -2 40 0 9 3 -1 5 -23 4 -22 0 -30 -2 -17 -4z"/>
<path d="M5060 3535 c-13 -14 -30 -25 -37 -25 -8 0 -12 -4 -9 -8 3 -5 -26 -38
-65 -73 -77 -70 -99 -86 -99 -69 0 5 -8 10 -17 10 -17 -1 -17 -1 0 -11 44 -25
14 -31 -150 -28 l-168 4 -37 38 c-21 21 -38 43 -38 48 0 6 -4 7 -10 4 -5 -3
-10 -1 -10 6 0 7 -3 9 -7 5 -4 -3 18 -31 47 -61 l54 -55 164 0 c163 0 164 0
196 26 59 50 227 214 218 214 -5 0 -19 -11 -32 -25z"/>
<path d="M4315 3512 c11 -13 29 -28 40 -34 21 -11 18 -8 -30 32 -29 24 -29 24
-10 2z"/>
<path d="M2882 3494 c9 -8 128 -10 128 -1 0 4 -30 7 -67 7 -36 0 -64 -3 -61
-6z"/>
<path d="M3030 3491 c0 -6 5 -13 10 -16 6 -3 10 -2 10 2 0 11 32 13 83 6 23
-3 37 -10 37 -19 0 -8 4 -14 10 -14 5 0 7 6 4 13 -7 19 85 23 576 26 223 2
407 5 409 7 2 2 -253 4 -567 4 -351 0 -572 -4 -572 -9z"/>
<path d="M4391 3454 c0 -11 3 -14 6 -6 3 7 2 16 -1 19 -3 4 -6 -2 -5 -13z"/>
<path d="M2890 3451 c0 -6 4 -13 10 -16 6 -3 7 1 4 9 -7 18 -14 21 -14 7z"/>
<path d="M3120 3450 c0 -6 7 -10 15 -10 8 0 15 2 15 4 0 2 -7 6 -15 10 -8 3
-15 1 -15 -4z"/>
<path d="M3446 3453 c-12 -12 -5 -23 14 -23 11 0 20 4 20 9 0 11 -26 22 -34
14z"/>
<path d="M3290 3443 c0 -4 5 -15 10 -23 8 -13 10 -13 10 2 0 9 -4 20 -10 23
-5 3 -10 3 -10 -2z"/>
<path d="M3520 3441 c0 -6 5 -13 10 -16 6 -3 10 1 10 9 0 9 -4 16 -10 16 -5 0
-10 -4 -10 -9z"/>
<path d="M5005 3330 c-119 -112 -159 -159 -74 -86 43 36 74 46 81 25 3 -8 10
-8 26 2 19 11 22 20 18 49 -4 29 -1 39 16 49 11 7 23 10 26 7 3 -3 0 -6 -7 -6
-7 0 -9 -4 -6 -10 3 -5 -1 -10 -11 -10 -14 0 -14 -3 -4 -15 12 -14 15 -13 32
5 12 13 17 28 13 40 -6 20 14 50 34 50 14 0 30 -32 24 -47 -3 -7 0 -13 6 -13
6 0 11 4 11 10 0 5 9 2 20 -8 12 -9 26 -17 33 -17 7 0 12 -12 11 -28 -1 -15 1
-25 4 -22 3 2 13 -5 23 -17 l19 -21 0 21 c0 12 5 22 11 22 6 0 9 -9 6 -20 -3
-11 0 -20 5 -20 6 0 8 12 5 28 -4 21 -1 31 13 40 16 10 18 9 14 -3 -4 -8 -1
-15 4 -15 18 0 21 14 7 34 -13 17 -14 17 -39 -1 -14 -10 -28 -26 -32 -37 -5
-14 -9 -15 -17 -6 -9 10 -9 14 1 17 6 3 12 11 12 19 0 8 7 14 16 14 10 0 14 5
10 15 -6 17 13 55 28 55 6 0 5 -5 -2 -12 -15 -15 -16 -38 -2 -38 6 0 10 7 10
15 0 8 9 19 20 25 16 9 20 8 20 -7 0 -15 2 -15 14 3 8 11 18 15 23 10 4 -5 2
-11 -4 -13 -7 -3 -13 -14 -13 -25 0 -15 -4 -18 -22 -13 -18 6 -20 5 -11 -5 6
-7 26 -14 44 -16 18 -2 37 -8 43 -14 6 -6 14 -6 21 0 17 14 45 2 46 -19 0 -11
3 -10 9 5 12 30 26 37 27 14 2 -26 -32 -53 -67 -52 -16 0 -33 -4 -36 -10 -5
-7 0 -9 15 -5 15 3 21 1 18 -6 -3 -7 -10 -11 -16 -9 -7 1 -10 -2 -6 -8 3 -6
11 -8 16 -5 5 4 9 1 9 -4 0 -6 5 -11 11 -11 7 0 17 -7 24 -16 11 -16 12 -16
18 0 4 10 3 15 -3 11 -14 -9 -12 9 2 23 9 9 9 12 1 12 -7 0 -15 -5 -18 -10 -8
-13 -25 -3 -25 15 0 9 9 14 23 12 13 -1 21 3 20 11 -4 17 16 15 23 -2 8 -20
36 -29 45 -14 6 9 11 9 22 -1 10 -7 18 -8 21 -2 4 5 -3 12 -14 16 -11 3 -20
11 -20 16 0 6 7 6 19 -1 31 -16 35 -12 10 10 -13 10 -19 19 -12 20 6 0 15 -5
18 -10 8 -12 46 -3 57 14 6 8 8 7 8 -1 0 -7 8 -13 17 -13 13 0 14 3 5 12 -9 9
-5 17 16 35 28 24 57 29 81 14 10 -6 4 -12 -23 -21 -19 -6 -40 -9 -45 -6 -5 4
-12 3 -15 -2 -6 -10 30 -43 38 -35 3 4 6 -1 6 -11 0 -17 22 -46 35 -46 4 0 4
7 1 16 -3 8 -2 13 2 10 13 -8 39 13 26 22 -21 15 -23 40 -3 45 19 5 36 -7 22
-16 -5 -2 -2 -2 5 -1 6 2 12 -2 12 -8 0 -6 3 -8 7 -5 8 9 -27 48 -37 42 -4 -3
-11 2 -14 11 -10 25 -7 34 9 34 8 0 15 5 15 10 0 14 -23 12 -39 -2 -11 -11
-13 -10 -8 5 5 13 1 17 -19 17 -14 0 -23 -4 -19 -10 4 -6 11 -8 16 -5 5 3 6
-1 2 -10 -3 -9 -9 -13 -12 -8 -23 31 -101 45 -101 18 0 -8 5 -15 10 -15 6 0
10 -4 10 -10 0 -5 -13 -7 -32 -3 -21 4 -29 3 -24 -5 4 -6 13 -9 21 -5 8 3 15
0 15 -6 0 -6 -11 -11 -25 -11 -28 0 -34 -15 -9 -24 22 -9 26 -8 18 6 -5 7 -3
8 5 3 10 -6 10 -11 -2 -22 -13 -13 -18 -14 -35 -1 -14 9 -18 18 -12 28 5 8 6
18 3 23 -3 5 1 13 8 18 7 4 10 11 7 15 -4 3 -19 -3 -34 -15 -26 -21 -26 -21
-4 -21 13 0 20 -3 16 -7 -9 -9 -115 -10 -109 0 2 4 0 7 -6 7 -6 0 -8 6 -5 13
3 8 -5 19 -18 25 -18 9 -19 11 -4 9 10 -1 21 3 22 8 4 9 -151 13 -160 4 -2 -2
-57 -2 -122 1 l-117 5 -122 -115z m212 88 c3 6 9 12 15 12 6 0 5 -7 -3 -16
-10 -13 -10 -17 2 -25 18 -11 49 -12 49 0 0 5 -9 7 -20 4 -11 -3 -20 -1 -20 4
0 15 23 33 41 33 12 0 16 -8 14 -31 -2 -29 -25 -67 -25 -41 0 7 -11 12 -25 12
-14 0 -25 4 -25 9 0 5 -9 13 -20 16 -11 3 -20 13 -20 22 0 13 2 13 17 2 13
-11 17 -11 20 -1z m266 -13 c-1 -11 0 -14 3 -7 8 17 24 15 24 -3 0 -9 -7 -18
-15 -21 -8 -4 -12 -10 -9 -15 3 -5 0 -9 -5 -9 -6 0 -11 8 -11 18 0 14 -2 15
-10 2 -6 -9 -10 -11 -10 -3 0 7 -7 10 -15 7 -12 -5 -13 -1 -4 26 9 23 16 30
33 28 14 -2 20 -9 19 -23z m297 -4 c0 -12 -50 -44 -57 -37 -3 3 2 8 11 12 9 3
16 12 16 20 0 8 7 14 15 14 8 0 15 -4 15 -9z m-160 -66 c0 -8 -4 -15 -9 -15
-5 0 -14 7 -21 15 -10 13 -9 15 9 15 12 0 21 -6 21 -15z m221 -7 c24 -27 24
-37 -1 -31 -11 3 -20 9 -20 13 0 5 -3 15 -6 24 -9 23 5 20 27 -6z m-801 -28
c0 -11 -7 -20 -15 -20 -17 0 -18 2 -9 24 9 23 24 20 24 -4z m580 -5 c0 -8 -7
-15 -15 -15 -9 0 -12 6 -9 15 4 8 10 15 15 15 5 0 9 -7 9 -15z"/>
<path d="M5450 3405 c0 -8 2 -15 4 -15 2 0 6 7 10 15 3 8 1 15 -4 15 -6 0 -10
-7 -10 -15z"/>
<path d="M5540 3430 c-7 -14 -7 -20 0 -20 5 0 10 -7 10 -16 0 -11 5 -14 16
-10 9 3 21 6 27 6 7 1 -1 8 -18 17 -19 11 -25 18 -16 21 7 2 17 -2 22 -9 8
-12 11 -12 20 1 7 11 12 12 15 3 6 -13 34 -6 34 9 0 5 -16 8 -34 7 -19 -2 -38
0 -42 4 -12 12 -23 8 -34 -13z"/>
<path d="M5672 3428 c6 -18 28 -21 28 -4 0 9 -7 16 -16 16 -9 0 -14 -5 -12
-12z"/>
<path d="M6085 3424 c9 -9 19 -13 23 -10 3 4 0 11 -8 16 -24 15 -33 11 -15 -6z"/>
<path d="M5133 3402 c-8 -13 -7 -21 4 -31 8 -7 17 -10 21 -6 3 3 0 10 -8 16
-13 7 -13 10 -1 18 7 5 9 11 4 14 -5 3 -14 -2 -20 -11z"/>
<path d="M3458 3389 c-10 -10 -15 -19 -12 -19 13 0 44 21 44 30 0 15 -13 11
-32 -11z"/>
<path d="M6035 3390 c-4 -6 -3 -16 3 -22 6 -6 12 -6 17 2 4 6 3 16 -3 22 -6 6
-12 6 -17 -2z"/>
<path d="M3310 3375 c-11 -13 -10 -14 4 -9 9 3 16 10 16 15 0 13 -6 11 -20 -6z"/>
<path d="M3567 3383 c-4 -3 -7 -11 -7 -17 0 -6 5 -5 12 2 6 6 9 14 7 17 -3 3
-9 2 -12 -2z"/>
<path d="M5123 3335 c-16 -18 -17 -33 -2 -18 6 6 18 9 25 6 10 -4 12 0 8 11
-7 19 -15 20 -31 1z"/>
<path d="M5170 3341 c0 -5 5 -13 10 -16 6 -3 10 -2 10 4 0 5 -4 13 -10 16 -5
3 -10 2 -10 -4z"/>
<path d="M3205 3330 l-280 -5 323 -3 c206 -1 321 1 317 8 -3 5 -22 8 -43 7
-20 -1 -163 -4 -317 -7z"/>
<path d="M4340 3330 c0 -5 5 -10 11 -10 5 0 7 5 4 10 -3 6 -8 10 -11 10 -2 0
-4 -4 -4 -10z"/>
<path d="M5210 3329 c0 -5 5 -7 10 -4 6 3 10 8 10 11 0 2 -4 4 -10 4 -5 0 -10
-5 -10 -11z"/>
<path d="M5415 3330 c3 -5 8 -10 11 -10 2 0 4 5 4 10 0 6 -5 10 -11 10 -5 0
-7 -4 -4 -10z"/>
<path d="M4210 3298 c-19 -17 -52 -46 -73 -65 -20 -19 -41 -32 -46 -29 -5 3
-8 -2 -7 -12 1 -15 -12 -18 -94 -23 l-95 -5 90 -2 90 -2 86 79 c76 70 91 80
130 84 l44 4 -45 1 c-37 1 -51 -4 -80 -30z"/>
<path d="M5394 3322 c3 -5 0 -13 -6 -15 -9 -4 -10 -6 -1 -6 17 -1 25 16 12 25
-7 4 -9 3 -5 -4z"/>
<path d="M3595 3300 c10 -11 20 -20 23 -20 3 0 -3 9 -13 20 -10 11 -20 20 -23
20 -3 0 3 -9 13 -20z"/>
<path d="M5445 3309 c-4 -6 -5 -12 -2 -15 2 -3 7 2 10 11 7 17 1 20 -8 4z"/>
<path d="M5485 3310 c-3 -5 1 -10 9 -10 9 0 16 5 16 10 0 6 -4 10 -9 10 -6 0
-13 -4 -16 -10z"/>
<path d="M5137 3303 c-15 -15 -7 -55 13 -60 26 -7 25 -18 -2 -37 -17 -12 -19
-16 -6 -16 13 0 15 -6 8 -35 -5 -22 -4 -37 3 -42 6 -3 7 -1 3 5 -4 7 -3 12 3
12 5 0 13 -4 16 -10 3 -5 14 -10 23 -9 12 0 11 3 -5 9 -13 5 -24 13 -24 17 -6
35 -4 70 3 80 12 15 2 33 -17 33 -11 0 -13 8 -8 30 5 30 3 36 -10 23z"/>
<path d="M5168 3303 c6 -2 12 -11 12 -19 0 -9 4 -13 10 -9 14 9 0 35 -19 34
-10 0 -11 -2 -3 -6z"/>
<path d="M5340 3299 c0 -5 5 -7 10 -4 6 3 10 8 10 11 0 2 -4 4 -10 4 -5 0 -10
-5 -10 -11z"/>
<path d="M5724 3295 c-4 -8 -12 -15 -20 -15 -8 0 -14 -5 -14 -10 0 -13 31 2
50 24 9 11 9 16 1 16 -6 0 -14 -7 -17 -15z"/>
<path d="M5772 3255 c3 -24 8 -48 12 -52 5 -5 5 12 1 37 -6 35 -4 43 5 33 13
-12 21 -88 13 -110 -3 -7 -12 -13 -20 -13 -8 0 -13 6 -10 13 3 7 -1 21 -9 32
-9 13 -11 21 -3 25 6 4 0 14 -15 24 -14 9 -26 12 -26 7 0 -6 -8 -7 -17 -4 -16
6 -16 5 0 -12 16 -15 20 -16 28 -4 9 15 13 6 10 -23 -3 -28 29 -68 55 -68 23
0 24 3 24 63 0 49 -4 68 -18 80 -28 26 -34 21 -30 -28z"/>
<path d="M5073 3274 c-18 -19 -16 -23 7 -17 20 5 26 18 13 26 -5 3 -14 -1 -20
-9z"/>
<path d="M5215 3279 c-12 -19 5 -23 22 -6 16 16 16 17 1 17 -9 0 -20 -5 -23
-11z"/>
<path d="M5400 3280 c-13 -8 -12 -10 3 -10 20 0 23 -16 5 -23 -7 -2 -4 -3 6
-1 11 2 25 -5 32 -14 12 -15 13 -15 14 -1 0 14 -31 59 -41 59 -2 0 -11 -5 -19
-10z"/>
<path d="M3630 3270 c0 -5 5 -10 11 -10 5 0 7 5 4 10 -3 6 -8 10 -11 10 -2 0
-4 -4 -4 -10z"/>
<path d="M5360 3270 c0 -5 5 -10 10 -10 6 0 10 5 10 10 0 6 -4 10 -10 10 -5 0
-10 -4 -10 -10z"/>
<path d="M5104 3246 c-3 -9 -10 -13 -15 -10 -5 3 -9 -2 -9 -10 0 -9 3 -16 8
-16 10 0 35 41 28 47 -3 3 -8 -2 -12 -11z"/>
<path d="M5190 3257 c0 -5 6 -15 14 -23 8 -7 16 -19 19 -26 2 -7 8 -9 13 -5 4
4 -4 20 -19 35 -15 14 -27 23 -27 19z"/>
<path d="M5247 3253 c-8 -7 11 -33 23 -33 5 0 6 9 3 20 -5 20 -15 25 -26 13z"/>
<path d="M5583 3230 c13 -34 33 -40 33 -11 0 11 -4 17 -8 15 -5 -3 -11 2 -14
10 -3 9 -10 16 -14 16 -5 0 -3 -13 3 -30z"/>
<path d="M5634 3248 c-10 -16 4 -22 28 -11 l22 10 -22 5 c-12 4 -25 2 -28 -4z"/>
<path d="M3700 3205 c43 -43 46 -45 100 -43 l55 2 -57 3 c-51 4 -60 8 -92 43
-20 22 -39 40 -43 40 -4 0 13 -20 37 -45z"/>
<path d="M5341 3241 c-8 -6 -9 -11 -3 -15 6 -3 14 -1 17 5 9 14 2 20 -14 10z"/>
<path d="M4976 3212 c-33 -35 -46 -96 -22 -105 9 -4 20 1 26 11 6 11 12 13 17
6 12 -17 45 -26 41 -12 -3 7 2 19 9 27 19 19 11 23 -21 11 -34 -13 -69 -13
-61 0 3 5 13 7 23 4 9 -2 7 1 -6 7 l-22 12 25 34 c32 40 28 43 -9 5z"/>
<path d="M4031 3214 c0 -11 3 -14 6 -6 3 7 2 16 -1 19 -3 4 -6 -2 -5 -13z"/>
<path d="M5464 3218 c-3 -5 -14 -6 -25 -3 -12 4 -21 1 -25 -10 -10 -26 5 -30
39 -12 18 10 41 15 50 11 9 -3 17 -2 17 4 0 13 -49 22 -56 10z m-24 -18 c0 -5
-4 -10 -10 -10 -5 0 -10 5 -10 10 0 6 5 10 10 10 6 0 10 -4 10 -10z"/>
<path d="M3425 3210 c-27 -7 -26 -8 12 -7 22 1 39 5 36 10 -5 8 -6 8 -48 -3z"/>
<path d="M3495 3210 c-3 -5 -1 -10 4 -10 6 0 11 5 11 10 0 6 -2 10 -4 10 -3 0
-8 -4 -11 -10z"/>
<path d="M3520 3207 c0 -8 7 -17 15 -21 8 -3 15 -2 15 3 0 5 -7 14 -15 21 -12
10 -15 10 -15 -3z"/>
<path d="M5008 3200 c-17 -19 -14 -30 7 -30 7 0 13 11 13 25 0 14 -1 25 -2 24
0 0 -8 -9 -18 -19z"/>
<path d="M5386 3203 c-6 -14 -5 -15 5 -6 7 7 10 15 7 18 -3 3 -9 -2 -12 -12z"/>
<path d="M5854 3205 c3 -8 1 -15 -3 -15 -5 0 -8 -10 -8 -22 1 -13 -2 -33 -7
-45 -4 -15 -3 -23 3 -23 6 0 11 7 11 15 0 8 5 15 10 15 6 0 10 -4 10 -10 0 -5
5 -10 10 -10 6 0 10 14 10 31 0 27 -2 30 -15 19 -12 -10 -15 -10 -15 2 0 8 5
19 11 25 12 12 4 33 -13 33 -5 0 -8 -7 -4 -15z"/>
<path d="M3048 3203 c7 -3 16 -2 19 1 4 3 -2 6 -13 5 -11 0 -14 -3 -6 -6z"/>
<path d="M3105 3200 c3 -5 8 -10 11 -10 2 0 4 5 4 10 0 6 -5 10 -11 10 -5 0
-7 -4 -4 -10z"/>
<path d="M3178 3203 c12 -2 32 -2 45 0 12 2 2 4 -23 4 -25 0 -35 -2 -22 -4z"/>
<path d="M5640 3200 c0 -5 7 -10 15 -10 8 0 15 5 15 10 0 6 -7 10 -15 10 -8 0
-15 -4 -15 -10z"/>
<path d="M5060 3185 c0 -9 5 -15 11 -13 6 2 11 8 11 13 0 5 -5 11 -11 13 -6 2
-11 -4 -11 -13z"/>
<path d="M5185 3180 c-3 -11 -2 -27 3 -36 6 -12 9 -7 10 20 2 40 -3 46 -13 16z"/>
<path d="M4673 3183 c-7 -3 -13 -12 -13 -21 0 -15 2 -15 17 1 18 18 16 27 -4
20z"/>
<path d="M5350 3184 c0 -10 28 -33 33 -27 3 3 0 12 -8 19 -14 15 -25 18 -25 8z"/>
<path d="M3060 3172 c0 -12 19 -26 26 -19 2 2 -2 10 -11 17 -9 8 -15 8 -15 2z"/>
<path d="M3138 3173 c6 -2 18 -2 25 0 6 3 1 5 -13 5 -14 0 -19 -2 -12 -5z"/>
<path d="M3176 3163 c-6 -14 -5 -15 5 -6 7 7 10 15 7 18 -3 3 -9 -2 -12 -12z"/>
<path d="M3206 3172 c-2 -4 -1 -14 5 -22 7 -12 9 -10 9 8 0 23 -5 28 -14 14z"/>
<path d="M3250 3170 c0 -5 5 -10 11 -10 5 0 7 5 4 10 -3 6 -8 10 -11 10 -2 0
-4 -4 -4 -10z"/>
<path d="M3575 3160 c10 -11 20 -20 23 -20 3 0 -3 9 -13 20 -10 11 -20 20 -23
20 -3 0 3 -9 13 -20z"/>
<path d="M5103 3165 c0 -8 9 -15 20 -15 16 0 17 3 7 15 -7 8 -16 15 -20 15 -3
0 -7 -7 -7 -15z"/>
<path d="M5607 3157 c-11 -29 -9 -43 4 -30 6 6 9 19 7 29 -3 18 -4 18 -11 1z"/>
<path d="M5441 3144 c0 -11 3 -14 6 -6 3 7 2 16 -1 19 -3 4 -6 -2 -5 -13z"/>
<path d="M3557 3129 c-4 -16 -3 -18 9 -8 7 6 11 15 8 20 -8 13 -11 11 -17 -12z"/>
<path d="M5474 3135 c-10 -8 -14 -15 -7 -15 6 0 14 4 18 10 3 5 12 7 20 3 8
-3 15 0 15 6 0 15 -23 14 -46 -4z"/>
<path d="M5568 3143 c7 -3 16 -2 19 1 4 3 -2 6 -13 5 -11 0 -14 -3 -6 -6z"/>
<path d="M3235 3130 c-3 -6 1 -7 9 -4 18 7 21 14 7 14 -6 0 -13 -4 -16 -10z"/>
<path d="M5078 3133 c6 -2 12 -9 12 -14 0 -6 -4 -7 -10 -4 -5 3 -10 1 -10 -5
0 -18 25 -6 28 13 2 11 -3 17 -15 16 -10 0 -13 -3 -5 -6z"/>
<path d="M5336 3123 c-6 -14 -5 -15 5 -6 7 7 10 15 7 18 -3 3 -9 -2 -12 -12z"/>
<path d="M3190 3120 c0 -5 5 -10 10 -10 6 0 10 5 10 10 0 6 -4 10 -10 10 -5 0
-10 -4 -10 -10z"/>
<path d="M3265 3120 c-3 -5 -1 -10 4 -10 6 0 11 5 11 10 0 6 -2 10 -4 10 -3 0
-8 -4 -11 -10z"/>
<path d="M3598 3108 c3 -15 7 -16 13 -7 12 20 27 -1 31 -46 1 -6 9 -11 19 -11
10 0 15 4 13 8 -3 4 -1 8 5 8 5 0 12 -4 16 -9 7 -13 -32 -34 -48 -26 -6 4 -2
-2 11 -14 l22 -20 -22 -3 c-20 -3 -22 -9 -23 -55 0 -28 3 -49 7 -47 4 3 8 0 8
-6 0 -19 31 18 33 39 0 11 4 18 8 15 8 -5 23 15 24 31 0 21 29 20 51 -2 17
-17 18 -17 11 0 -3 9 -2 17 3 17 6 0 10 6 10 14 0 21 -41 27 -67 11 -27 -18
-33 -19 -33 -4 0 5 5 7 11 3 7 -4 9 0 5 13 -6 20 -2 20 160 21 92 1 169 4 172
7 3 3 -71 5 -165 5 -136 0 -173 3 -183 14 -6 8 -18 12 -26 9 -10 -3 -12 0 -8
10 3 10 -3 20 -18 28 -35 20 -46 19 -40 -3z m172 -118 c0 -5 -4 -10 -9 -10 -6
0 -13 5 -16 10 -3 6 1 10 9 10 9 0 16 -4 16 -10z m-64 -37 c-7 -7 -26 7 -26
19 0 6 6 6 15 -2 9 -7 13 -15 11 -17z"/>
<path d="M5115 3121 c-3 -5 -2 -12 3 -15 5 -3 9 1 9 9 0 17 -3 19 -12 6z"/>
<path d="M5410 3119 c0 -5 5 -7 10 -4 6 3 10 8 10 11 0 2 -4 4 -10 4 -5 0 -10
-5 -10 -11z"/>
<path d="M5525 3121 c-6 -11 9 -23 19 -14 9 9 7 23 -3 23 -6 0 -12 -4 -16 -9z"/>
<path d="M3170 3086 c0 -9 5 -16 10 -16 6 0 10 4 10 9 0 6 -4 13 -10 16 -5 3
-10 -1 -10 -9z"/>
<path d="M4160 3040 c0 -5 -7 -10 -17 -10 -9 0 -14 -3 -10 -6 8 -8 47 5 47 17
0 5 -4 9 -10 9 -5 0 -10 -4 -10 -10z"/>
<path d="M4186 3025 c-3 -8 -1 -15 4 -15 6 0 10 7 10 15 0 8 -2 15 -4 15 -2 0
-6 -7 -10 -15z"/>
<path d="M3850 3015 c0 -8 5 -15 10 -15 6 0 10 7 10 15 0 8 -4 15 -10 15 -5 0
-10 -7 -10 -15z"/>
<path d="M3880 3020 c0 -5 5 -10 10 -10 6 0 10 5 10 10 0 6 -4 10 -10 10 -5 0
-10 -4 -10 -10z"/>
<path d="M3913 3014 c0 -7 9 -14 19 -14 10 0 18 2 18 5 0 2 -8 9 -18 14 -14 8
-19 6 -19 -5z"/>
<path d="M3955 3020 c4 -6 11 -8 16 -5 14 9 11 15 -7 15 -8 0 -12 -5 -9 -10z"/>
<path d="M3990 3010 c-9 -6 -10 -10 -3 -10 6 0 15 5 18 10 8 12 4 12 -15 0z"/>
<path d="M4206 3004 c-3 -9 -12 -14 -19 -11 -7 3 -13 -3 -13 -13 0 -10 5 -16
11 -14 13 5 38 44 32 50 -3 3 -7 -3 -11 -12z"/>
<path d="M4030 3000 c0 -5 5 -10 10 -10 6 0 10 5 10 10 0 6 -4 10 -10 10 -5 0
-10 -4 -10 -10z"/>
<path d="M4122 2991 c7 -11 16 -17 20 -14 10 5 -10 33 -23 33 -5 0 -4 -9 3
-19z"/>
<path d="M3920 2984 c0 -7 27 -34 34 -34 4 0 1 9 -6 20 -12 19 -28 27 -28 14z"/>
<path d="M3983 2974 c-3 -9 0 -20 8 -25 11 -7 9 -9 -7 -9 -12 0 -26 -11 -34
-25 -10 -18 -16 -22 -21 -13 -4 7 -11 9 -16 5 -4 -5 -1 -12 7 -17 11 -7 20 -4
32 10 20 25 25 25 31 3 4 -14 5 -13 6 3 0 12 8 25 17 28 13 5 14 9 4 21 -9 11
-9 15 -1 15 7 0 9 5 6 10 -9 15 -25 12 -32 -6z"/>
<path d="M3805 2970 c3 -5 13 -10 21 -10 8 0 14 5 14 10 0 6 -9 10 -21 10 -11
0 -17 -4 -14 -10z"/>
<path d="M4088 2973 c7 -3 16 -2 19 1 4 3 -2 6 -13 5 -11 0 -14 -3 -6 -6z"/>
<path d="M4040 2955 c-11 -13 -8 -15 21 -14 24 1 27 3 11 6 -12 2 -20 9 -17
14 10 15 -1 10 -15 -6z"/>
<path d="M4195 2962 c-12 -13 -3 -18 25 -14 18 3 30 0 30 -7 0 -6 -11 -11 -25
-11 -16 0 -25 -6 -25 -15 0 -9 -10 -15 -26 -15 -14 0 -23 -4 -20 -9 8 -13 47
-1 53 15 8 21 21 17 25 -8 2 -12 10 -23 18 -25 13 -4 13 -3 0 6 -13 9 -13 12
-1 23 11 11 13 11 6 -1 -5 -9 -4 -12 2 -8 5 4 10 21 9 39 -1 29 -4 33 -33 34
-18 1 -35 -1 -38 -4z"/>
<path d="M3727 2948 c-2 -7 -5 -17 -5 -22 0 -5 -6 -12 -13 -17 -8 -4 -10 -11
-6 -15 4 -4 14 2 23 14 8 11 20 20 27 18 6 -1 9 -1 5 1 -5 3 -8 11 -8 19 0 17
-16 19 -23 2z"/>
<path d="M3786 2944 c-9 -23 -7 -34 5 -34 5 0 7 5 4 10 -3 6 -1 10 4 10 6 0
11 7 11 15 0 20 -16 19 -24 -1z"/>
<path d="M3900 2938 c0 -12 1 -19 3 -17 1 2 9 12 16 22 12 14 11 17 -3 17 -10
0 -16 -8 -16 -22z"/>
<path d="M3830 2926 c0 -8 -6 -17 -12 -19 -10 -4 -10 -8 -1 -14 13 -9 6 -63
-9 -63 -5 0 -6 -5 -3 -10 10 -16 25 -1 25 25 0 13 5 27 11 31 8 4 7 9 -2 15
-11 6 -11 11 -1 21 15 15 16 28 2 28 -5 0 -10 -6 -10 -14z"/>
<path d="M3870 2932 c0 -5 6 -17 14 -27 13 -18 14 -18 9 8 -5 24 -23 39 -23
19z"/>
<path d="M3748 2903 c6 -2 12 -11 12 -18 0 -17 27 -27 36 -14 7 12 -25 39 -46
38 -10 0 -11 -2 -2 -6z"/>
<path d="M4327 2884 c-7 -36 -2 -41 17 -21 12 12 13 18 2 32 -12 17 -14 16
-19 -11z"/>
<path d="M4017 2889 c7 -7 15 -10 18 -7 3 3 -2 9 -12 12 -14 6 -15 5 -6 -5z"/>
<path d="M4050 2884 c0 -8 5 -12 10 -9 6 3 10 10 10 16 0 5 -4 9 -10 9 -5 0
-10 -7 -10 -16z"/>
<path d="M4283 2874 c-6 -13 -7 -24 -3 -24 9 0 25 39 18 45 -2 2 -8 -7 -15
-21z"/>
<path d="M3856 2864 c-13 -35 -7 -56 17 -52 15 2 21 9 19 21 -2 9 2 17 8 17 5
0 10 5 10 10 0 18 -18 10 -25 -10 -4 -11 -11 -18 -16 -14 -5 3 -7 14 -4 25 8
23 0 26 -9 3z"/>
<path d="M4077 2873 c-4 -3 -7 -13 -7 -21 0 -18 13 -7 16 13 2 17 1 18 -9 8z"/>
<path d="M3715 2860 c-3 -5 -2 -10 4 -10 5 0 13 5 16 10 3 6 2 10 -4 10 -5 0
-13 -4 -16 -10z"/>
<path d="M3990 2860 c0 -5 7 -10 15 -10 8 0 15 5 15 10 0 6 -7 10 -15 10 -8 0
-15 -4 -15 -10z"/>
<path d="M4356 2851 c-3 -5 1 -11 9 -15 8 -3 15 -1 15 4 0 13 -18 22 -24 11z"/>
<path d="M4130 2836 c0 -9 5 -16 10 -16 6 0 10 4 10 9 0 6 -4 13 -10 16 -5 3
-10 -1 -10 -9z"/>
<path d="M3222 2833 c-12 -2 -20 -9 -17 -14 9 -14 32 -11 39 6 3 8 4 14 3 14
-1 -1 -12 -4 -25 -6z"/>
<path d="M4100 2825 c0 -8 2 -15 4 -15 2 0 6 7 10 15 3 8 1 15 -4 15 -6 0 -10
-7 -10 -15z"/>
<path d="M3700 2820 c0 -5 7 -10 15 -10 8 0 15 5 15 10 0 6 -7 10 -15 10 -8 0
-15 -4 -15 -10z"/>
<path d="M3945 2820 c-3 -5 1 -10 9 -10 9 0 16 5 16 10 0 6 -4 10 -9 10 -6 0
-13 -4 -16 -10z"/>
<path d="M4330 2820 c0 -5 5 -10 10 -10 6 0 10 5 10 10 0 6 -4 10 -10 10 -5 0
-10 -4 -10 -10z"/>
<path d="M3245 2800 c-4 -6 -11 -8 -16 -5 -11 7 -12 -5 -1 -21 5 -8 13 -4 25
12 10 13 13 24 8 24 -5 0 -13 -5 -16 -10z"/>
<path d="M3743 2793 c-18 -2 -33 -8 -33 -14 0 -15 56 -10 70 6 7 8 9 14 4 13
-5 0 -24 -3 -41 -5z"/>
<path d="M4393 2793 c-25 -9 -13 -19 22 -19 19 0 33 1 32 2 -15 11 -45 20 -54
17z"/>
<path d="M3875 2780 c3 -5 12 -7 20 -3 21 7 19 13 -6 13 -11 0 -18 -4 -14 -10z"/>
<path d="M3955 2780 c3 -5 8 -10 11 -10 2 0 4 5 4 10 0 6 -5 10 -11 10 -5 0
-7 -4 -4 -10z"/>
<path d="M4763 2740 c-69 -41 -65 -149 6 -197 42 -28 76 -29 118 -3 46 27 63
66 53 118 -9 50 -24 71 -67 89 -44 18 -72 16 -110 -7z m107 -16 c0 -2 -7 -4
-15 -4 -8 0 -15 4 -15 10 0 5 7 7 15 4 8 -4 15 -8 15 -10z m11 -57 c-6 -8 -9
-16 -6 -19 3 -2 -1 -5 -9 -5 -11 0 -12 4 -3 19 7 10 16 18 21 18 4 0 3 -6 -3
-13z"/>
<path d="M6135 3370 c3 -5 11 -10 16 -10 6 0 7 5 4 10 -3 6 -11 10 -16 10 -6
0 -7 -4 -4 -10z"/>
<path d="M6435 3168 c-32 -19 -44 -40 -45 -79 0 -48 30 -79 76 -79 99 0 116
148 19 165 -16 3 -39 0 -50 -7z"/>
<path d="M5978 3212 c-11 -11 -14 -23 -9 -31 7 -10 10 -9 16 8 3 11 11 21 16
21 5 0 9 5 9 10 0 15 -13 11 -32 -8z"/>
<path d="M5337 2844 c-13 -13 -7 -24 14 -24 11 0 19 5 17 12 -5 14 -22 21 -31
12z"/>
<path d="M5410 2744 c0 -8 5 -12 10 -9 6 4 8 11 5 16 -9 14 -15 11 -15 -7z"/>
<path d="M5630 2637 c-77 -39 -53 -187 31 -187 57 0 109 45 109 95 0 31 -30
73 -64 89 -41 19 -44 19 -76 3z"/>
<path d="M4510 2560 c0 -5 7 -10 15 -10 8 0 15 5 15 10 0 6 -7 10 -15 10 -8 0
-15 -4 -15 -10z"/>
<path d="M4617 2467 c3 -13 11 -24 18 -24 10 0 10 5 -2 24 -8 13 -16 23 -18
23 -1 0 0 -10 2 -23z"/>
<path d="M4630 2420 c0 -5 5 -10 10 -10 6 0 10 -7 10 -15 0 -8 5 -15 10 -15
17 0 11 25 -10 38 -12 7 -20 8 -20 2z"/>
<path d="M4930 2360 c0 -5 5 -10 11 -10 5 0 7 5 4 10 -3 6 -8 10 -11 10 -2 0
-4 -4 -4 -10z"/>
<path d="M4335 2180 c-3 -5 -1 -10 4 -10 6 0 11 5 11 10 0 6 -2 10 -4 10 -3 0
-8 -4 -11 -10z"/>
<path d="M4068 2213 c7 -3 16 -2 19 1 4 3 -2 6 -13 5 -11 0 -14 -3 -6 -6z"/>
<path d="M3985 8858 c-32 -18 -44 -40 -45 -79 0 -49 37 -84 91 -84 48 0 77 27
86 78 5 31 1 40 -25 67 -32 32 -71 39 -107 18z"/>
<path d="M6139 8841 c-20 -20 -29 -39 -29 -61 0 -22 9 -41 29 -61 20 -20 39
-29 61 -29 42 0 90 47 90 88 0 44 -9 61 -41 77 -43 23 -77 18 -110 -14z"/>
<path d="M3236 8558 c-13 -18 -16 -53 -16 -170 0 -135 2 -150 20 -168 30 -30
83 -27 109 6 19 24 21 40 21 161 0 170 -10 193 -82 193 -27 0 -41 -6 -52 -22z"/>
<path d="M3696 8558 c-13 -18 -16 -55 -16 -199 0 -154 2 -180 18 -198 32 -40
116 -25 128 23 3 12 4 100 2 195 -3 157 -5 174 -22 187 -31 22 -92 18 -110 -8z"/>
<path d="M6426 8558 c-13 -18 -16 -55 -16 -199 0 -194 5 -211 62 -225 22 -5
34 0 59 26 l32 31 -6 176 c-6 199 -11 213 -78 213 -28 0 -42 -6 -53 -22z"/>
<path d="M6884 8559 c-16 -18 -20 -40 -22 -141 -6 -186 6 -218 78 -218 63 0
70 18 70 196 0 133 -2 153 -18 167 -27 24 -85 22 -108 -4z"/>
<path d="M2072 7765 c-70 -31 -78 -146 -12 -180 76 -39 160 4 160 82 0 47 -22
81 -66 99 -40 17 -41 17 -82 -1z"/>
<path d="M2557 7760 c-75 -59 -36 -190 56 -190 85 0 134 87 90 160 -30 52
-100 66 -146 30z"/>
<path d="M7564 7769 c-30 -15 -54 -61 -54 -104 0 -79 99 -125 163 -75 30 24
50 78 42 113 -14 56 -98 93 -151 66z"/>
<path d="M8083 7773 c-38 -7 -73 -59 -73 -106 1 -64 36 -97 103 -97 107 0 141
154 43 195 -20 8 -39 14 -43 14 -4 -1 -18 -4 -30 -6z"/>
<path d="M1914 7170 c-56 -22 -71 -95 -28 -129 58 -46 134 -15 134 54 0 33
-27 75 -49 75 -5 0 -15 2 -23 4 -7 3 -23 1 -34 -4z"/>
<path d="M8253 7170 c-27 -11 -43 -40 -43 -78 0 -44 29 -74 73 -75 44 -1 74
23 83 69 11 55 -57 105 -113 84z"/>
<path d="M1584 5440 c-86 -35 -82 -165 6 -191 72 -22 130 20 130 94 0 49 -13
73 -50 92 -32 17 -54 18 -86 5z"/>
<path d="M8554 5431 c-36 -22 -58 -75 -48 -115 9 -38 59 -76 100 -76 49 0 94
43 101 97 5 39 2 46 -30 78 -41 41 -75 45 -123 16z"/>
</g>
</svg>
